<svg xmlns="http://www.w3.org/2000/svg" version="1.1" xmlns:xlink="http://www.w3.org/1999/xlink" xmlns:svgjs="http://svgjs.dev/svgjs" width="1500" height="1500" viewBox="0 0 1500 1500"><rect width="1500" height="1500" fill="#ffffff"></rect><g transform="matrix(0.6666666666666666,0,0,0.6666666666666666,249.39393939393938,462.9507591563421)"><svg viewBox="0 0 396 228" data-background-color="#ffffff" preserveAspectRatio="xMidYMid meet" height="863" width="1500" xmlns="http://www.w3.org/2000/svg" xmlns:xlink="http://www.w3.org/1999/xlink"><g id="tight-bounds" transform="matrix(1,0,0,1,0.2400000000000091,-0.24468091711352713)"><svg viewBox="0 0 395.52 228.48936183422705" height="228.48936183422705" width="395.52"><g><svg viewBox="0 0 395.52 228.48936183422705" height="228.48936183422705" width="395.52"><g transform="matrix(1,0,0,1,0,138.75671092932063)"><svg viewBox="0 0 395.52 89.73265090490642" height="89.73265090490642" width="395.52"><g id="textblocktransform"><svg viewBox="0 0 395.52 89.73265090490642" height="89.73265090490642" width="395.52" id="textblock"><g><svg viewBox="0 0 395.52 62.46372938689217" height="62.46372938689217" width="395.52"><g transform="matrix(1,0,0,1,0,0)"><svg width="395.52" viewBox="4.5 -36.75 236.48 37.35" height="62.46372938689217" data-palette-color="#000000"><path d="M25.5 0L4.5 0 4.5-35 25.5-35 25.5-30.9 9.25-30.9 9.25-20.25 23.25-20.25 23.25-16.25 9.25-16.25 9.25-4.1 25.5-4.1 25.5 0ZM36.25 0L31.75 0 31.75-26 36.1-26 36.1-20.35Q36.75-22 37.85-23.43 38.95-24.85 40.6-25.73 42.25-26.6 44.45-26.6L44.45-26.6Q45.2-26.6 45.95-26.53 46.7-26.45 47.2-26.3L47.2-26.3 45.85-21.65Q44.9-22.05 43.6-22.05L43.6-22.05Q41.75-22.05 40.07-21 38.4-19.95 37.32-17.75 36.25-15.55 36.25-12.15L36.25-12.15 36.25 0ZM56.2 0L51.7 0 51.7-26 56.05-26 56.05-21.65Q57.45-23.75 59.6-25.18 61.75-26.6 64.5-26.6L64.5-26.6Q67.6-26.6 69.57-25.1 71.55-23.6 72.35-21.1L72.35-21.1Q73.9-23.4 76.02-25 78.15-26.6 81.3-26.6L81.3-26.6Q85.55-26.6 87.62-23.93 89.7-21.25 89.7-16.95L89.7-16.95 89.7 0 85.2 0 85.2-16.6Q85.2-19.3 83.95-20.98 82.7-22.65 80.5-22.65L80.5-22.65Q78.25-22.65 76.32-20.98 74.4-19.3 72.95-17.05L72.95-17.05 72.95 0 68.45 0 68.45-16.6Q68.45-19.3 67.2-20.98 65.95-22.65 63.75-22.65L63.75-22.65Q61.55-22.65 59.6-21.03 57.65-19.4 56.2-17.2L56.2-17.2 56.2 0ZM101.94 0L97.44 0 97.44-26 101.94-26 101.94 0ZM99.69-30.45L99.69-30.45Q98.39-30.45 97.47-31.4 96.54-32.35 96.54-33.6L96.54-33.6Q96.54-35.05 97.39-35.9 98.24-36.75 99.69-36.75L99.69-36.75Q100.99-36.75 101.92-35.83 102.84-34.9 102.84-33.6L102.84-33.6Q102.84-32.2 101.99-31.33 101.14-30.45 99.69-30.45ZM116.94 0.6L116.94 0.6Q113.99 0.6 111.62-0.15 109.24-0.9 107.69-2.1L107.69-2.1 109.59-5.85Q110.89-4.75 112.87-4.03 114.84-3.3 117.09-3.3L117.09-3.3Q119.89-3.3 121.32-4.23 122.74-5.15 122.74-6.6L122.74-6.6Q122.74-7.65 122.22-8.45 121.69-9.25 120.29-10.03 118.89-10.8 116.24-11.7L116.24-11.7Q112.59-12.95 110.77-14.68 108.94-16.4 108.94-19.45L108.94-19.45Q108.94-22.45 111.57-24.53 114.19-26.6 118.84-26.6L118.84-26.6Q121.34-26.6 123.29-26.08 125.24-25.55 126.79-24.75L126.79-24.75 125.54-21.05Q124.19-21.85 122.47-22.35 120.74-22.85 118.64-22.85L118.64-22.85Q116.04-22.85 114.69-21.8 113.34-20.75 113.34-19.5L113.34-19.5Q113.34-18.3 114.39-17.45 115.44-16.6 118.49-15.6L118.49-15.6Q123.44-13.95 125.39-11.95 127.34-9.95 127.34-6.95L127.34-6.95Q127.34-3.45 124.52-1.43 121.69 0.6 116.94 0.6ZM153.59 0L148.84 0 148.84-34.9Q150.89-35.15 153.36-35.27 155.84-35.4 158.49-35.4L158.49-35.4Q162.84-35.4 165.89-34.02 168.94-32.65 170.54-30.25 172.14-27.85 172.14-24.75L172.14-24.75Q172.14-21 170.29-18.4 168.44-15.8 165.14-14.43 161.84-13.05 157.49-13.05L157.49-13.05Q155.39-13.05 153.59-13.2L153.59-13.2 153.59 0ZM158.09-17L158.09-17Q162.53-17 164.99-19 167.44-21 167.44-24.35L167.44-24.35Q167.44-27.6 165.09-29.5 162.74-31.4 158.39-31.4L158.39-31.4Q157.03-31.4 155.84-31.35 154.64-31.3 153.59-31.2L153.59-31.2 153.59-17.25Q154.39-17.15 155.53-17.07 156.69-17 158.09-17ZM182.38 0L177.88 0 177.88-35 184.53-35 194.23-12.85 203.78-35 210.58-35 210.58 0 205.83 0 205.83-28.95 196.48-7.9 191.78-7.9 182.38-28.95 182.38 0ZM228.28 0.6L228.28 0.6Q224.63 0.6 221.63-0.38 218.63-1.35 216.58-2.95L216.58-2.95 218.98-6.95Q220.78-5.45 223.03-4.5 225.28-3.55 228.28-3.55L228.28-3.55Q231.88-3.55 233.98-5.05 236.08-6.55 236.08-9.1L236.08-9.1Q236.08-10.55 235.48-11.68 234.88-12.8 233.16-13.88 231.43-14.95 228.08-16.2L228.08-16.2Q224.48-17.6 222.33-19.03 220.18-20.45 219.26-22.28 218.33-24.1 218.33-26.6L218.33-26.6Q218.33-29.1 219.71-31.13 221.08-33.15 223.76-34.38 226.43-35.6 230.23-35.6L230.23-35.6Q233.33-35.6 235.81-34.98 238.28-34.35 240.63-33.2L240.63-33.2 238.88-29.15Q237.18-30.15 234.91-30.83 232.63-31.5 230.13-31.5L230.13-31.5Q226.83-31.5 224.93-30.2 223.03-28.9 223.03-26.85L223.03-26.85Q223.03-25.55 223.58-24.55 224.13-23.55 225.76-22.6 227.38-21.65 230.63-20.45L230.63-20.45Q234.53-19 236.81-17.4 239.08-15.8 240.03-13.93 240.98-12.05 240.98-9.65L240.98-9.65Q240.98-6.4 239.36-4.1 237.73-1.8 234.86-0.6 231.98 0.6 228.28 0.6Z" opacity="1" transform="matrix(1,0,0,1,0,0)" fill="#000000" class="wordmark-text-0" data-fill-palette-color="primary" id="text-0"></path></svg></g></svg></g><g transform="matrix(1,0,0,1,75.54432,77.20991676563213)"><svg viewBox="0 0 244.43135999999998 12.522734139274302" height="12.522734139274302" width="244.43135999999998"><g transform="matrix(1,0,0,1,0,0)"><svg width="244.43135999999998" viewBox="5.88 -43.29 1115.4799999999998 57.16" height="12.522734139274302" data-palette-color="#61777f"><path d="M5.88-1.49L5.88-34.4Q5.88-37.43 8.52-37.43L8.52-37.43 9.52-37.43Q10.52-37.43 10.91-37.18L10.91-37.18Q11.65-36.74 12.28-35.79L12.28-35.79 28-12.65Q28.91-11.33 29.42-10.23L29.42-10.23 30.42-8.13Q30.44-8.08 30.51-8.08 30.57-8.08 30.52-8.72 30.47-9.35 30.27-10.56 30.08-11.77 30.08-12.96L30.08-12.96 30.08-35.94Q30.08-36.57 30.46-37 30.83-37.43 31.37-37.43L31.37-37.43 34.59-37.43Q35.11-37.43 35.49-37 35.86-36.57 35.86-35.94L35.86-35.94 35.86-2.44Q35.86-1.46 35.25-0.93L35.25-0.93Q34.23 0 33.4 0L33.4 0 31.91 0Q30.69 0 30.13-0.39L30.13-0.39Q29.3-1.03 28.08-2.78L28.08-2.78Q14.14-23.17 13.13-24.8L13.13-24.8 11.11-28.2Q11.06-28.27 10.97-28.27 10.89-28.27 10.96-27.91 11.04-27.54 11.17-26.67 11.3-25.81 11.43-24.76L11.43-24.76Q11.67-22.31 11.67-20.21L11.67-20.21 11.67-1.49Q11.67-0.88 11.29-0.44 10.91 0 10.38 0L10.38 0 7.15 0Q6.64 0 6.26-0.44 5.88-0.88 5.88-1.49L5.88-1.49ZM68.16-1.29L68.16-1.29Q68.16 0 66.89 0L66.89 0 64.52 0Q63.57 0 63.38-0.38 63.18-0.76 63.16-1.06 63.13-1.37 63.06-1.81L63.06-1.81Q62.91-3 62.64-4.39L62.64-4.39Q60.74-0.9 56.66 0.22L56.66 0.22Q55.22 0.61 53.49 0.61 51.76 0.61 50.02 0.04 48.29-0.54 46.95-1.66L46.95-1.66Q43.92-4.2 43.92-8.33L43.92-8.33Q43.92-12.84 47.24-15.23L47.24-15.23Q49.97-17.16 54.27-17.16 58.57-17.16 61.55-14.65L61.55-14.65Q61.62-15.48 61.62-16.72 61.62-17.97 61.13-19.21 60.64-20.46 59.74-21.29L59.74-21.29Q57.88-22.92 54.56-22.92L54.56-22.92Q51.58-22.92 48.51-21.29L48.51-21.29Q47.92-20.97 47.48-20.97L47.48-20.97Q46.82-20.97 46.21-22.27L46.21-22.27Q45.55-23.58 45.55-24.17L45.55-24.17Q45.55-25.24 47.17-26.25L47.17-26.25Q50.24-28.15 55.39-28.15L55.39-28.15Q60.08-28.15 63.16-25.59L63.16-25.59Q66.79-22.51 66.79-16.89L66.79-16.89Q66.79-14.4 65.99-10.62L65.99-10.62Q68.06-4.71 68.16-1.29ZM51.8-11.66Q50.8-10.91 50.38-10.18 49.95-9.45 49.95-8.46 49.95-7.47 50.3-6.7 50.66-5.93 51.29-5.42L51.29-5.42Q52.63-4.37 54.31-4.37 55.98-4.37 57.05-4.76 58.13-5.15 58.91-5.76L58.91-5.76Q60.59-7.08 60.59-8.54L60.59-8.54Q60.45-10.38 58.57-11.43L58.57-11.43Q56.88-12.4 54.59-12.4L54.59-12.4Q52.81-12.4 51.8-11.66ZM97.7-25.88L97.7-25.88Q97.41-21.73 95.5-15.14L95.5-15.14Q92.82-5.74 89.5-1.73L89.5-1.73Q88.35-0.39 87.18-0.05 86.01 0.29 84.81 0.29 83.61 0.29 82.73 0.02 81.86-0.24 81.27-0.81L81.27-0.81Q80.29-1.76 79.51-4.37L79.51-4.37Q77.9-9.74 76.17-14.87L76.17-14.87 72.63-25.07Q72.43-25.66 72.43-26.07L72.43-26.07Q72.43-27.54 74.34-27.54L74.34-27.54 76.56-27.54Q77.41-27.54 77.94-27.16 78.46-26.78 78.83-25.71L78.83-25.71Q82-16.28 84.22-6.64L84.22-6.64Q84.49-5.4 85.3-5.4L85.3-5.4Q85.93-5.4 86.47-6.42L86.47-6.42Q89.11-11.33 90.72-21.09L90.72-21.09Q91.16-23.66 91.36-25.02 91.57-26.39 91.78-26.71 91.99-27.03 92.26-27.2L92.26-27.2Q92.74-27.54 93.33-27.54L93.33-27.54 96.14-27.54Q97.7-27.54 97.7-25.88ZM107.37-32.25L107.37-32.25Q105.71-32.25 104.53-33.4L104.53-33.4Q103.36-34.52 103.36-36.23L103.36-36.23Q103.36-37.89 104.53-39.06L104.53-39.06Q105.66-40.19 107.37-40.19L107.37-40.19Q109.98-40.19 111.03-37.79L111.03-37.79Q111.35-37.08 111.35-36.23L111.35-36.23Q111.35-34.52 110.17-33.4L110.17-33.4Q109-32.25 107.37-32.25ZM110.22-25.93L110.22-6.71Q110.22-4.98 111.37-4.98L111.37-4.98Q111.76-4.98 112.25-5.2L112.25-5.2Q113.2-5.62 113.54-5.62L113.54-5.62Q114.06-5.62 114.37-4.91L114.37-4.91 115.13-3.2Q115.32-2.78 115.32-2.42L115.32-2.42Q115.32-1.37 113.52-0.46L113.52-0.46Q111.81 0.42 110.14 0.42 108.46 0.42 107.46 0.05 106.46-0.32 105.75-1.17L105.75-1.17Q104.34-2.93 104.34-6.88L104.34-6.88 104.34-25.93Q104.34-26.61 104.73-27.08 105.12-27.54 105.66-27.54L105.66-27.54 108.93-27.54Q109.49-27.54 109.86-27.08 110.22-26.61 110.22-25.93L110.22-25.93ZM127.77-2.61L127.77-2.61Q130.07-3.74 132.64-3.74 135.22-3.74 137.23-3.26 139.25-2.78 140.86-1.76L140.86-1.76Q144.47 0.54 144.47 4.66L144.47 4.66Q144.47 8.96 140.37 11.57L140.37 11.57Q136.73 13.87 131.63 13.87L131.63 13.87Q126.43 13.87 122.96 11.62L122.96 11.62Q119.23 9.18 119.23 4.98L119.23 4.98Q119.23-0.12 124.62-4.88L124.62-4.88Q126.72-6.71 129.26-8.18L129.26-8.18Q125.28-8.54 122.48-10.99L122.48-10.99Q119.33-13.75 119.33-17.85L119.33-17.85Q119.33-22.56 122.87-25.49L122.87-25.49Q126.11-28.15 130.61-28.15L130.61-28.15Q135.44-28.15 138.2-25.54L138.2-25.54Q139.05-24.73 139.57-23.71L139.57-23.71Q139.57-25.95 138.99-28.36 138.42-30.76 138.42-31.23 138.42-31.69 138.6-31.97 138.78-32.25 139.03-32.4L139.03-32.4Q139.39-32.62 139.86-32.62L139.86-32.62 141.96-32.62Q143.98-32.62 143.98-26.98L143.98-26.98Q143.98-22.46 142.18-18.65L142.18-18.65Q142.23-18.12 142.23-17.24 142.23-16.36 141.84-15.19 141.45-14.01 140.8-13 140.15-11.99 139.31-11.13 138.47-10.28 137.53-9.55 136.59-8.81 135.63-8.2L135.63-8.2Q130.29-4.81 129.24-3.97 128.19-3.13 127.77-2.61ZM126.65-13.95Q127.48-13.23 128.59-12.85 129.7-12.48 130.96-12.48 132.22-12.48 133.27-12.85 134.32-13.23 135.12-13.96L135.12-13.96Q136.83-15.5 136.83-17.92L136.83-17.92Q136.83-20.39 134.93-21.8L134.93-21.8Q133.24-23.05 130.78-23.05L130.78-23.05Q126.87-23.05 125.38-20.14L125.38-20.14Q124.89-19.19 124.89-17.93 124.89-16.67 125.36-15.67 125.82-14.67 126.65-13.95ZM125.48 1.9L125.48 1.9Q124.57 2.93 124.57 4.17 124.57 5.42 125.19 6.3 125.8 7.18 126.8 7.76L126.8 7.76Q128.73 8.86 131.63 8.86L131.63 8.86Q136.22 8.86 138.03 6.59L138.03 6.59Q138.61 5.83 138.61 4.69 138.61 3.54 137.89 2.73 137.17 1.93 136.1 1.49L136.1 1.49Q134.32 0.76 131.46 0.76L131.46 0.76Q127.07 0.76 125.48 1.9ZM172.33-1.29L172.33-1.29Q172.33 0 171.06 0L171.06 0 168.69 0Q167.74 0 167.54-0.38 167.35-0.76 167.32-1.06 167.3-1.37 167.22-1.81L167.22-1.81Q167.08-3 166.81-4.39L166.81-4.39Q164.9-0.9 160.83 0.22L160.83 0.22Q159.39 0.61 157.65 0.61 155.92 0.61 154.19 0.04 152.45-0.54 151.11-1.66L151.11-1.66Q148.08-4.2 148.08-8.33L148.08-8.33Q148.08-12.84 151.4-15.23L151.4-15.23Q154.14-17.16 158.43-17.16 162.73-17.16 165.71-14.65L165.71-14.65Q165.78-15.48 165.78-16.72 165.78-17.97 165.3-19.21 164.81-20.46 163.9-21.29L163.9-21.29Q162.05-22.92 158.73-22.92L158.73-22.92Q155.75-22.92 152.67-21.29L152.67-21.29Q152.09-20.97 151.65-20.97L151.65-20.97Q150.99-20.97 150.38-22.27L150.38-22.27Q149.72-23.58 149.72-24.17L149.72-24.17Q149.72-25.24 151.33-26.25L151.33-26.25Q154.41-28.15 159.56-28.15L159.56-28.15Q164.25-28.15 167.32-25.59L167.32-25.59Q170.96-22.51 170.96-16.89L170.96-16.89Q170.96-14.4 170.15-10.62L170.15-10.62Q172.23-4.71 172.33-1.29ZM155.97-11.66Q154.97-10.91 154.54-10.18 154.11-9.45 154.11-8.46 154.11-7.47 154.47-6.7 154.82-5.93 155.46-5.42L155.46-5.42Q156.8-4.37 158.47-4.37 160.14-4.37 161.22-4.76 162.29-5.15 163.07-5.76L163.07-5.76Q164.76-7.08 164.76-8.54L164.76-8.54Q164.61-10.38 162.73-11.43L162.73-11.43Q161.05-12.4 158.75-12.4L158.75-12.4Q156.97-12.4 155.97-11.66ZM194.27-26.2L194.27-23.83Q194.27-22.46 192.73-22.46L192.73-22.46 185.85-22.46 185.85-7.13Q185.85-4.64 188.32-4.64L188.32-4.64Q189.88-4.64 192.39-6.2L192.39-6.2Q192.88-6.52 193.45-6.52 194.03-6.52 194.37-5.71L194.37-5.71 194.93-4.44Q195.25-3.71 195.25-3.2 195.25-2.69 194.48-2.01 193.71-1.34 192.51-0.81L192.51-0.81Q189.8 0.42 187.61 0.42 185.41 0.42 184.13-0.04 182.85-0.49 181.94-1.39L181.94-1.39Q179.99-3.3 179.99-6.88L179.99-6.88 179.99-22.46 177.94-22.46Q176.4-22.46 176.4-23.85L176.4-23.85 176.4-25.24Q176.4-25.81 176.69-26.12 176.99-26.44 177.84-26.61L177.84-26.61 180.28-27.32 181.21-33.06Q181.48-34.67 182.53-34.67L182.53-34.67 184.56-34.67Q185.12-34.67 185.48-34.22 185.85-33.76 185.85-33.06L185.85-33.06 185.85-27.54 192.73-27.54Q194.27-27.54 194.27-26.2L194.27-26.2ZM203.11-32.25L203.11-32.25Q201.45-32.25 200.28-33.4L200.28-33.4Q199.1-34.52 199.1-36.23L199.1-36.23Q199.1-37.89 200.28-39.06L200.28-39.06Q201.4-40.19 203.11-40.19L203.11-40.19Q205.72-40.19 206.77-37.79L206.77-37.79Q207.09-37.08 207.09-36.23L207.09-36.23Q207.09-34.52 205.92-33.4L205.92-33.4Q204.74-32.25 203.11-32.25ZM205.96-25.93L205.96-6.71Q205.96-4.98 207.11-4.98L207.11-4.98Q207.5-4.98 207.99-5.2L207.99-5.2Q208.94-5.62 209.28-5.62L209.28-5.62Q209.8-5.62 210.11-4.91L210.11-4.91 210.87-3.2Q211.07-2.78 211.07-2.42L211.07-2.42Q211.07-1.37 209.26-0.46L209.26-0.46Q207.55 0.42 205.88 0.42 204.21 0.42 203.21 0.05 202.2-0.32 201.5-1.17L201.5-1.17Q200.08-2.93 200.08-6.88L200.08-6.88 200.08-25.93Q200.08-26.61 200.47-27.08 200.86-27.54 201.4-27.54L201.4-27.54 204.67-27.54Q205.23-27.54 205.6-27.08 205.96-26.61 205.96-25.93L205.96-25.93ZM216.8-25.78L216.8-25.78Q216.8-27.54 218.49-27.54L218.49-27.54 219.83-27.54Q221.2-27.54 221.68-26.51L221.68-26.51Q222.37-25.05 222.86-22.66L222.86-22.66Q225.05-26.66 229.4-27.78L229.4-27.78Q230.77-28.15 232.8-28.15 234.84-28.15 236.58-27.28 238.31-26.42 239.31-24.9L239.31-24.9Q241.17-22.14 241.17-16.77L241.17-16.77 241.17-1.61Q241.17-0.93 240.73-0.46 240.29 0 239.43 0L239.43 0 237.04 0Q236.11 0 235.67-0.46 235.23-0.93 235.23-1.61L235.23-1.61 235.23-16.8Q235.23-23.05 230.64-23.05L230.64-23.05Q227.96-23.05 225.74-20.8L225.74-20.8Q223.37-18.38 223.37-15.19L223.37-15.19 223.37-1.61Q223.37-0.93 222.95-0.46 222.54 0 221.68 0L221.68 0 219.17 0Q218.31 0 217.88-0.46 217.44-0.93 217.44-1.61L217.44-1.61 217.44-16.6Q217.44-21.51 217.12-23.45 216.8-25.39 216.8-25.78ZM256.81-2.61L256.81-2.61Q259.11-3.74 261.68-3.74 264.26-3.74 266.27-3.26 268.29-2.78 269.9-1.76L269.9-1.76Q273.51 0.54 273.51 4.66L273.51 4.66Q273.51 8.96 269.41 11.57L269.41 11.57Q265.77 13.87 260.67 13.87L260.67 13.87Q255.47 13.87 252 11.62L252 11.62Q248.27 9.18 248.27 4.98L248.27 4.98Q248.27-0.12 253.66-4.88L253.66-4.88Q255.76-6.71 258.3-8.18L258.3-8.18Q254.32-8.54 251.52-10.99L251.52-10.99Q248.37-13.75 248.37-17.85L248.37-17.85Q248.37-22.56 251.91-25.49L251.91-25.49Q255.15-28.15 259.65-28.15L259.65-28.15Q264.48-28.15 267.24-25.54L267.24-25.54Q268.09-24.73 268.61-23.71L268.61-23.71Q268.61-25.95 268.03-28.36 267.46-30.76 267.46-31.23 267.46-31.69 267.64-31.97 267.82-32.25 268.07-32.4L268.07-32.4Q268.43-32.62 268.9-32.62L268.9-32.62 271-32.62Q273.02-32.62 273.02-26.98L273.02-26.98Q273.02-22.46 271.22-18.65L271.22-18.65Q271.27-18.12 271.27-17.24 271.27-16.36 270.88-15.19 270.49-14.01 269.84-13 269.19-11.99 268.35-11.13 267.51-10.28 266.57-9.55 265.63-8.81 264.67-8.2L264.67-8.2Q259.33-4.81 258.28-3.97 257.23-3.13 256.81-2.61ZM255.69-13.95Q256.52-13.23 257.63-12.85 258.74-12.48 260-12.48 261.26-12.48 262.31-12.85 263.36-13.23 264.16-13.96L264.16-13.96Q265.87-15.5 265.87-17.92L265.87-17.92Q265.87-20.39 263.97-21.8L263.97-21.8Q262.28-23.05 259.82-23.05L259.82-23.05Q255.91-23.05 254.42-20.14L254.42-20.14Q253.93-19.19 253.93-17.93 253.93-16.67 254.4-15.67 254.86-14.67 255.69-13.95ZM254.52 1.9L254.52 1.9Q253.62 2.93 253.62 4.17 253.62 5.42 254.23 6.3 254.84 7.18 255.84 7.76L255.84 7.76Q257.77 8.86 260.67 8.86L260.67 8.86Q265.26 8.86 267.07 6.59L267.07 6.59Q267.65 5.83 267.65 4.69 267.65 3.54 266.93 2.73 266.21 1.93 265.14 1.49L265.14 1.49Q263.36 0.76 260.5 0.76L260.5 0.76Q256.11 0.76 254.52 1.9ZM292.97-1.56L292.97-35.86Q292.97-36.5 293.37-36.96 293.77-37.43 294.33-37.43L294.33-37.43 315.79-37.43Q316.43-37.43 316.76-37.02 317.09-36.62 317.09-36.04L317.09-36.04 317.09-33.4Q317.09-32.84 316.76-32.43 316.43-32.03 315.79-32.03L315.79-32.03 299.09-32.03 299.09-21.34 312.37-21.34Q313.01-21.34 313.34-20.94 313.67-20.53 313.67-19.95L313.67-19.95 313.67-17.31Q313.67-16.75 313.34-16.35 313.01-15.94 312.37-15.94L312.37-15.94 299.09-15.94 299.09-5.4 315.91-5.4Q316.55-5.4 316.88-4.99 317.21-4.59 317.21-4L317.21-4 317.21-1.37Q317.21-0.81 316.88-0.4 316.55 0 315.91 0L315.91 0 294.31 0Q293.75 0 293.36-0.46 292.97-0.93 292.97-1.56L292.97-1.56ZM322.8 0Q321.97 0 321.54-0.59 321.11-1.17 321.11-1.68L321.11-1.68Q321.11-2.66 321.83-3.34 322.55-4.03 323.55-5.24 324.55-6.45 325.53-7.81L325.53-7.81 327.46-10.6 329.29-13.4 321.41-25.02Q321.14-25.44 321.14-25.79 321.14-26.15 321.3-26.46 321.45-26.78 321.7-27L321.7-27Q322.26-27.54 322.92-27.54L322.92-27.54 325.12-27.54Q326.95-27.54 327.95-25.61L327.95-25.61Q332.17-18.09 332.83-17.04L332.83-17.04 335.49-22.24Q337.01-25.12 337.75-26.09 338.5-27.05 339.07-27.29 339.64-27.54 340.3-27.54L340.3-27.54 342.5-27.54Q343.3-27.54 343.81-27 344.31-26.46 344.31-25.81L344.31-25.81Q344.31-24.51 343.28-23.51 342.26-22.51 341.33-21.39L341.33-21.39 339.5-19.04Q338.57-17.82 337.69-16.53L337.69-16.53 336.03-14.01 344.33-2.51Q344.62-2.08 344.62-1.51 344.62-0.95 344.17-0.48 343.72 0 343.09 0L343.09 0 340.38 0Q338.93 0 338.18-0.93L338.18-0.93Q337.86-1.32 337.45-2.08L337.45-2.08 333.88-8.4 332.81-10.21 330.07-4.93 328.9-2.83Q327.24 0 324.99 0L324.99 0 322.8 0ZM368.89-16.67L368.3-16.67Q366.3-16.67 366.3-18.65L366.3-18.65Q366.3-20.92 364.91-22.12L364.91-22.12Q363.71-23.17 361.7-23.17 359.68-23.17 358.37-22.34 357.05-21.51 356.22-20.21L356.22-20.21Q354.61-17.68 354.61-14.11L354.61-14.11Q354.61-7.45 358.66-5.37L358.66-5.37Q360.12-4.61 361.91-4.61 363.69-4.61 364.84-5 365.98-5.4 366.89-5.86 367.79-6.32 368.46-6.71 369.13-7.1 369.57-7.1L369.57-7.1Q370.45-7.1 370.96-6.3L370.96-6.3 371.5-5.4Q371.87-4.76 371.87-4.16 371.87-3.56 371.38-2.92 370.89-2.27 370.07-1.73 369.25-1.2 368.2-0.76 367.16-0.32 366.03 0L366.03 0Q360.66 1.44 356.22-0.44L356.22-0.44Q351.24-2.54 349.36-7.96L349.36-7.96Q348.43-10.64 348.43-13.96 348.43-17.29 349.42-19.92 350.41-22.56 352.16-24.39L352.16-24.39Q355.8-28.15 361.66-28.15L361.66-28.15Q366.84-28.15 369.6-25.44L369.6-25.44Q371.92-23.12 371.92-19.63L371.92-19.63Q371.92-16.67 368.89-16.67L368.89-16.67ZM383.19-12.43L383.19-12.43 383.17-11.96Q383.17-8.62 385.29-6.59L385.29-6.59Q387.51-4.44 391.32-4.44L391.32-4.44Q394.79-4.44 397.77-6.52L397.77-6.52Q398.33-6.91 398.77-6.91L398.77-6.91Q399.67-6.91 400.14-6.01L400.14-6.01 400.8-4.64Q401.01-4.15 401.01-3.59 401.01-3.03 400.51-2.43 400.01-1.83 399.21-1.34 398.4-0.85 397.34-0.49 396.28-0.12 395.16 0.12L395.16 0.12Q392.91 0.61 390.47 0.61 388.03 0.61 385.55-0.32 383.07-1.25 381.26-3.03L381.26-3.03Q377.38-6.81 377.38-13.26L377.38-13.26Q377.38-24.56 385.34-27.32L385.34-27.32Q387.83-28.17 390.46-28.17 393.08-28.17 394.92-27.61 396.77-27.05 398.11-25.95L398.11-25.95Q400.94-23.63 400.94-19.48L400.94-19.48Q400.94-15.41 397.62-13.26L397.62-13.26Q394.72-11.38 389.96-11.38L389.96-11.38Q387.03-11.38 383.19-12.43ZM395.2-19.56L395.2-19.56Q395.2-23.05 390.52-23.05L390.52-23.05Q386.05-23.05 384.27-19.78L384.27-19.78Q383.63-18.63 383.44-16.94L383.44-16.94Q385.54-15.89 388.78-15.89L388.78-15.89Q395.2-15.89 395.2-19.56ZM414.22-41.7L414.22-6.71Q414.22-4.98 415.44-4.98L415.44-4.98Q415.83-4.98 416.44-5.2L416.44-5.2Q417.57-5.62 417.81-5.62L417.81-5.62Q418.37-5.62 418.69-4.91L418.69-4.91 419.44-3.17Q419.59-2.81 419.59-2.49L419.59-2.49Q419.59-1.93 418.66-1.12L418.66-1.12Q416.81 0.42 413.81 0.42L413.81 0.42Q408.34 0.42 408.34-6.88L408.34-6.88 408.34-41.7Q408.34-42.36 408.73-42.82 409.12-43.29 409.65-43.29L409.65-43.29 412.93-43.29Q413.49-43.29 413.85-42.82 414.22-42.36 414.22-41.7L414.22-41.7ZM430.89-41.7L430.89-6.71Q430.89-4.98 432.11-4.98L432.11-4.98Q432.5-4.98 433.11-5.2L433.11-5.2Q434.24-5.62 434.48-5.62L434.48-5.62Q435.04-5.62 435.36-4.91L435.36-4.91 436.12-3.17Q436.26-2.81 436.26-2.49L436.26-2.49Q436.26-1.93 435.34-1.12L435.34-1.12Q433.48 0.42 430.48 0.42L430.48 0.42Q425.01 0.42 425.01-6.88L425.01-6.88 425.01-41.7Q425.01-42.36 425.4-42.82 425.79-43.29 426.33-43.29L426.33-43.29 429.6-43.29Q430.16-43.29 430.53-42.82 430.89-42.36 430.89-41.7L430.89-41.7ZM445.71-12.43L445.71-12.43 445.69-11.96Q445.69-8.62 447.81-6.59L447.81-6.59Q450.03-4.44 453.84-4.44L453.84-4.44Q457.31-4.44 460.28-6.52L460.28-6.52Q460.85-6.91 461.29-6.91L461.29-6.91Q462.19-6.91 462.65-6.01L462.65-6.01 463.31-4.64Q463.53-4.15 463.53-3.59 463.53-3.03 463.03-2.43 462.53-1.83 461.73-1.34 460.92-0.85 459.86-0.49 458.8-0.12 457.67 0.12L457.67 0.12Q455.43 0.61 452.98 0.61 450.54 0.61 448.07-0.32 445.59-1.25 443.78-3.03L443.78-3.03Q439.9-6.81 439.9-13.26L439.9-13.26Q439.9-24.56 447.86-27.32L447.86-27.32Q450.35-28.17 452.97-28.17 455.6-28.17 457.44-27.61 459.28-27.05 460.63-25.95L460.63-25.95Q463.46-23.63 463.46-19.48L463.46-19.48Q463.46-15.41 460.14-13.26L460.14-13.26Q457.23-11.38 452.47-11.38L452.47-11.38Q449.54-11.38 445.71-12.43ZM457.72-19.56L457.72-19.56Q457.72-23.05 453.03-23.05L453.03-23.05Q448.57-23.05 446.78-19.78L446.78-19.78Q446.15-18.63 445.95-16.94L445.95-16.94Q448.05-15.89 451.3-15.89L451.3-15.89Q457.72-15.89 457.72-19.56ZM470.78-25.78L470.78-25.78Q470.78-27.54 472.46-27.54L472.46-27.54 473.81-27.54Q475.17-27.54 475.66-26.51L475.66-26.51Q476.35-25.05 476.83-22.66L476.83-22.66Q479.03-26.66 483.38-27.78L483.38-27.78Q484.75-28.15 486.78-28.15 488.82-28.15 490.56-27.28 492.29-26.42 493.29-24.9L493.29-24.9Q495.15-22.14 495.15-16.77L495.15-16.77 495.15-1.61Q495.15-0.93 494.71-0.46 494.27 0 493.41 0L493.41 0 491.02 0Q490.09 0 489.65-0.46 489.21-0.93 489.21-1.61L489.21-1.61 489.21-16.8Q489.21-23.05 484.62-23.05L484.62-23.05Q481.94-23.05 479.72-20.8L479.72-20.8Q477.35-18.38 477.35-15.19L477.35-15.19 477.35-1.61Q477.35-0.93 476.93-0.46 476.52 0 475.66 0L475.66 0 473.15 0Q472.29 0 471.85-0.46 471.41-0.93 471.41-1.61L471.41-1.61 471.41-16.6Q471.41-21.51 471.1-23.45 470.78-25.39 470.78-25.78ZM523-16.67L522.41-16.67Q520.41-16.67 520.41-18.65L520.41-18.65Q520.41-20.92 519.02-22.12L519.02-22.12Q517.82-23.17 515.81-23.17 513.8-23.17 512.48-22.34 511.16-21.51 510.33-20.21L510.33-20.21Q508.72-17.68 508.72-14.11L508.72-14.11Q508.72-7.45 512.77-5.37L512.77-5.37Q514.23-4.61 516.02-4.61 517.8-4.61 518.95-5 520.09-5.4 521-5.86 521.9-6.32 522.57-6.71 523.24-7.1 523.68-7.1L523.68-7.1Q524.56-7.1 525.07-6.3L525.07-6.3 525.61-5.4Q525.98-4.76 525.98-4.16 525.98-3.56 525.49-2.92 525-2.27 524.18-1.73 523.37-1.2 522.32-0.76 521.27-0.32 520.14 0L520.14 0Q514.77 1.44 510.33-0.44L510.33-0.44Q505.35-2.54 503.47-7.96L503.47-7.96Q502.54-10.64 502.54-13.96 502.54-17.29 503.53-19.92 504.52-22.56 506.28-24.39L506.28-24.39Q509.91-28.15 515.77-28.15L515.77-28.15Q520.95-28.15 523.71-25.44L523.71-25.44Q526.03-23.12 526.03-19.63L526.03-19.63Q526.03-16.67 523-16.67L523-16.67ZM537.3-12.43L537.3-12.43 537.28-11.96Q537.28-8.62 539.4-6.59L539.4-6.59Q541.62-4.44 545.43-4.44L545.43-4.44Q548.9-4.44 551.88-6.52L551.88-6.52Q552.44-6.91 552.88-6.91L552.88-6.91Q553.78-6.91 554.25-6.01L554.25-6.01 554.91-4.64Q555.13-4.15 555.13-3.59 555.13-3.03 554.63-2.43 554.12-1.83 553.32-1.34 552.51-0.85 551.45-0.49 550.39-0.12 549.27 0.12L549.27 0.12Q547.02 0.61 544.58 0.61 542.14 0.61 539.66-0.32 537.18-1.25 535.37-3.03L535.37-3.03Q531.49-6.81 531.49-13.26L531.49-13.26Q531.49-24.56 539.45-27.32L539.45-27.32Q541.94-28.17 544.57-28.17 547.19-28.17 549.03-27.61 550.88-27.05 552.22-25.95L552.22-25.95Q555.05-23.63 555.05-19.48L555.05-19.48Q555.05-15.41 551.73-13.26L551.73-13.26Q548.83-11.38 544.07-11.38L544.07-11.38Q541.14-11.38 537.3-12.43ZM549.32-19.56L549.32-19.56Q549.32-23.05 544.63-23.05L544.63-23.05Q540.16-23.05 538.38-19.78L538.38-19.78Q537.74-18.63 537.55-16.94L537.55-16.94Q539.65-15.89 542.89-15.89L542.89-15.89Q549.32-15.89 549.32-19.56ZM560.23-2.44L560.23-2.44Q559.96-3.1 559.96-3.89 559.96-4.69 560.26-5.43 560.57-6.18 561.1-6.74L561.1-6.74Q562.25-7.93 563.62-7.93 564.99-7.93 565.79-7.51 566.6-7.08 567.16-6.35L567.16-6.35Q568.26-4.86 568.26-2.95 568.26-1.05 567.92 0.44 567.57 1.93 567.01 3.3L567.01 3.3Q565.94 5.86 564.16 8.11L564.16 8.11 563.64 8.69Q562.57 9.91 561.91 9.91 561.25 9.91 560.76 9.5L560.76 9.5 559.88 8.74Q559.44 8.4 559.44 7.96L559.44 7.96Q559.44 7.28 560.12 6.56 560.79 5.83 561.35 4.91 561.91 3.98 562.28 3.13L562.28 3.13Q562.91 1.51 563.03 0.12L563.03 0.12Q561.01-0.44 560.23-2.44ZM588.64-1.56L588.64-35.86Q588.64-36.5 589.04-36.96 589.44-37.43 590.01-37.43L590.01-37.43 611.47-37.43Q612.1-37.43 612.43-37.02 612.76-36.62 612.76-36.04L612.76-36.04 612.76-33.4Q612.76-32.84 612.43-32.43 612.1-32.03 611.47-32.03L611.47-32.03 594.77-32.03 594.77-21.34 608.05-21.34Q608.68-21.34 609.01-20.94 609.34-20.53 609.34-19.95L609.34-19.95 609.34-17.31Q609.34-16.75 609.01-16.35 608.68-15.94 608.05-15.94L608.05-15.94 594.77-15.94 594.77-5.4 611.59-5.4Q612.22-5.4 612.55-4.99 612.88-4.59 612.88-4L612.88-4 612.88-1.37Q612.88-0.81 612.55-0.4 612.22 0 611.59 0L611.59 0 589.98 0Q589.42 0 589.03-0.46 588.64-0.93 588.64-1.56L588.64-1.56ZM620.67-25.78L620.67-25.78Q620.67-27.54 622.35-27.54L622.35-27.54 623.69-27.54Q625.06-27.54 625.55-26.51L625.55-26.51Q626.23-25.05 626.72-22.66L626.72-22.66Q628.92-26.66 633.27-27.78L633.27-27.78Q634.63-28.15 636.67-28.15 638.71-28.15 640.44-27.28 642.18-26.42 643.18-24.9L643.18-24.9Q645.03-22.14 645.03-16.77L645.03-16.77 645.03-1.61Q645.03-0.93 644.59-0.46 644.15 0 643.3 0L643.3 0 640.91 0Q639.98 0 639.54-0.46 639.1-0.93 639.1-1.61L639.1-1.61 639.1-16.8Q639.1-23.05 634.51-23.05L634.51-23.05Q631.82-23.05 629.6-20.8L629.6-20.8Q627.23-18.38 627.23-15.19L627.23-15.19 627.23-1.61Q627.23-0.93 626.82-0.46 626.4 0 625.55 0L625.55 0 623.04 0Q622.18 0 621.74-0.46 621.3-0.93 621.3-1.61L621.3-1.61 621.3-16.6Q621.3-21.51 620.98-23.45 620.67-25.39 620.67-25.78ZM661.61-4.39L661.61-4.39Q666.29-4.39 666.29-7.54L666.29-7.54Q666.29-9.28 663.63-10.47L663.63-10.47Q662.51-10.99 661.18-11.43 659.85-11.87 658.63-12.48 657.41-13.09 656.35-13.81 655.28-14.53 654.5-15.45L654.5-15.45Q652.89-17.41 652.89-20.41L652.89-20.41Q652.89-24.07 655.94-26.22L655.94-26.22Q658.65-28.15 662.61-28.15L662.61-28.15Q666.86-28.15 669.71-26.49L669.71-26.49Q670.69-25.9 670.69-25.15L670.69-25.15Q670.69-24.07 670.12-22.79 669.54-21.51 668.77-21.51 668-21.51 667.38-21.83 666.76-22.14 666.26-22.38 665.76-22.61 665.2-22.75L665.2-22.75Q663.98-23.12 662.94-23.12 661.9-23.12 661.27-22.97 660.63-22.83 660.12-22.51L660.12-22.51Q658.87-21.75 658.87-20.65 658.87-19.56 659.37-18.97 659.87-18.38 660.75-17.9 661.63-17.41 662.85-16.92L662.85-16.92 665.49-15.82Q668.69-14.43 669.81-13.31L669.81-13.31Q672.01-11.06 672.01-8.11L672.01-8.11Q672.01-4.39 669.47-2L669.47-2Q666.66 0.61 661.49 0.61L661.49 0.61Q656.24 0.61 653.6-1.42L653.6-1.42Q652.31-2.39 652.31-3.17 652.31-3.96 652.59-4.58 652.87-5.2 653.32-6.04 653.77-6.88 654.54-6.88 655.31-6.88 656.18-6.19 657.04-5.49 658.56-4.94 660.07-4.39 661.61-4.39ZM703.65-1.66L703.65-1.66Q703.65 0 702.13 0L702.13 0 701.03 0Q699.57 0 699.1-1.17L699.1-1.17Q698.59-2.51 698.01-4.91L698.01-4.91Q696.98-2.34 694.53-0.87 692.07 0.61 688.41 0.61L688.41 0.61Q683.63 0.61 681.36-2.38 679.09-5.37 679.09-11.21L679.09-11.21 679.09-25.93Q679.09-26.61 679.51-27.08 679.94-27.54 680.72-27.54L680.72-27.54 683.41-27.54Q685.02-27.54 685.02-25.93L685.02-25.93 685.02-11.47Q685.02-5.64 687.73-4.74L687.73-4.74Q688.61-4.44 689.82-4.44 691.02-4.44 692.31-5 693.59-5.57 694.61-6.49L694.61-6.49Q696.91-8.62 696.91-11.35L696.91-11.35 696.91-25.93Q696.91-26.61 697.32-27.08 697.74-27.54 698.64-27.54L698.64-27.54 701.2-27.54Q702.06-27.54 702.45-27.08 702.84-26.61 702.84-25.93L702.84-25.93 702.84-10.67Q702.84-5.52 703.57-2.37L703.57-2.37Q703.65-2.1 703.65-1.66ZM711.65-25.78L711.65-25.78Q711.65-27.54 713.19-27.54L713.19-27.54 714.51-27.54Q715.85-27.54 716.41-26.37L716.41-26.37Q717.22-24.66 717.58-21.66L717.58-21.66Q717.58-21.61 717.62-21.61 717.66-21.61 717.78-22.44 717.9-23.27 718.49-24.48 719.07-25.68 719.93-26.51L719.93-26.51Q721.66-28.15 724.18-28.15L724.18-28.15Q726.98-28.15 728.08-27.22L728.08-27.22Q728.59-26.81 728.5-26.07L728.5-26.07 728.11-23Q727.96-21.75 726.84-21.75L726.84-21.75Q726.3-21.75 725.52-21.97L725.52-21.97Q724-22.36 723.13-22.36 722.25-22.36 721.27-21.59 720.29-20.83 719.59-19.68L719.59-19.68Q718.15-17.29 718.15-14.58L718.15-14.58 718.15-1.61Q718.15-0.93 717.75-0.46 717.36 0 716.63 0L716.63 0 713.8 0Q713.02 0 712.62-0.46 712.21-0.93 712.21-1.61L712.21-1.61 712.21-18.43Q712.21-22.73 711.93-24.11 711.65-25.49 711.65-25.78ZM736.06-32.25L736.06-32.25Q734.4-32.25 733.23-33.4L733.23-33.4Q732.06-34.52 732.06-36.23L732.06-36.23Q732.06-37.89 733.23-39.06L733.23-39.06Q734.35-40.19 736.06-40.19L736.06-40.19Q738.68-40.19 739.72-37.79L739.72-37.79Q740.04-37.08 740.04-36.23L740.04-36.23Q740.04-34.52 738.87-33.4L738.87-33.4Q737.7-32.25 736.06-32.25ZM738.92-25.93L738.92-6.71Q738.92-4.98 740.07-4.98L740.07-4.98Q740.46-4.98 740.95-5.2L740.95-5.2Q741.9-5.62 742.24-5.62L742.24-5.62Q742.75-5.62 743.07-4.91L743.07-4.91 743.83-3.2Q744.02-2.78 744.02-2.42L744.02-2.42Q744.02-1.37 742.22-0.46L742.22-0.46Q740.51 0.42 738.83 0.42 737.16 0.42 736.16 0.05 735.16-0.32 734.45-1.17L734.45-1.17Q733.04-2.93 733.04-6.88L733.04-6.88 733.04-25.93Q733.04-26.61 733.43-27.08 733.82-27.54 734.35-27.54L734.35-27.54 737.63-27.54Q738.19-27.54 738.55-27.08 738.92-26.61 738.92-25.93L738.92-25.93ZM749.76-25.78L749.76-25.78Q749.76-27.54 751.44-27.54L751.44-27.54 752.78-27.54Q754.15-27.54 754.64-26.51L754.64-26.51Q755.32-25.05 755.81-22.66L755.81-22.66Q758.01-26.66 762.35-27.78L762.35-27.78Q763.72-28.15 765.76-28.15 767.8-28.15 769.53-27.28 771.27-26.42 772.27-24.9L772.27-24.9Q774.12-22.14 774.12-16.77L774.12-16.77 774.12-1.61Q774.12-0.93 773.68-0.46 773.24 0 772.39 0L772.39 0 770 0Q769.07 0 768.63-0.46 768.19-0.93 768.19-1.61L768.19-1.61 768.19-16.8Q768.19-23.05 763.6-23.05L763.6-23.05Q760.91-23.05 758.69-20.8L758.69-20.8Q756.32-18.38 756.32-15.19L756.32-15.19 756.32-1.61Q756.32-0.93 755.91-0.46 755.49 0 754.64 0L754.64 0 752.12 0Q751.27 0 750.83-0.46 750.39-0.93 750.39-1.61L750.39-1.61 750.39-16.6Q750.39-21.51 750.07-23.45 749.76-25.39 749.76-25.78ZM789.77-2.61L789.77-2.61Q792.06-3.74 794.64-3.74 797.22-3.74 799.23-3.26 801.24-2.78 802.85-1.76L802.85-1.76Q806.47 0.54 806.47 4.66L806.47 4.66Q806.47 8.96 802.37 11.57L802.37 11.57Q798.73 13.87 793.63 13.87L793.63 13.87Q788.43 13.87 784.96 11.62L784.96 11.62Q781.22 9.18 781.22 4.98L781.22 4.98Q781.22-0.12 786.62-4.88L786.62-4.88Q788.72-6.71 791.26-8.18L791.26-8.18Q787.28-8.54 784.47-10.99L784.47-10.99Q781.32-13.75 781.32-17.85L781.32-17.85Q781.32-22.56 784.86-25.49L784.86-25.49Q788.11-28.15 792.6-28.15L792.6-28.15Q797.43-28.15 800.19-25.54L800.19-25.54Q801.05-24.73 801.56-23.71L801.56-23.71Q801.56-25.95 800.99-28.36 800.41-30.76 800.41-31.23 800.41-31.69 800.6-31.97 800.78-32.25 801.02-32.4L801.02-32.4Q801.39-32.62 801.85-32.62L801.85-32.62 803.95-32.62Q805.98-32.62 805.98-26.98L805.98-26.98Q805.98-22.46 804.17-18.65L804.17-18.65Q804.22-18.12 804.22-17.24 804.22-16.36 803.83-15.19 803.44-14.01 802.79-13 802.15-11.99 801.3-11.13 800.46-10.28 799.52-9.55 798.58-8.81 797.63-8.2L797.63-8.2Q792.28-4.81 791.23-3.97 790.18-3.13 789.77-2.61ZM788.65-13.95Q789.48-13.23 790.59-12.85 791.7-12.48 792.95-12.48 794.21-12.48 795.26-12.85 796.31-13.23 797.12-13.96L797.12-13.96Q798.83-15.5 798.83-17.92L798.83-17.92Q798.83-20.39 796.92-21.8L796.92-21.8Q795.24-23.05 792.77-23.05L792.77-23.05Q788.87-23.05 787.38-20.14L787.38-20.14Q786.89-19.19 786.89-17.93 786.89-16.67 787.35-15.67 787.82-14.67 788.65-13.95ZM787.47 1.9L787.47 1.9Q786.57 2.93 786.57 4.17 786.57 5.42 787.18 6.3 787.79 7.18 788.79 7.76L788.79 7.76Q790.72 8.86 793.63 8.86L793.63 8.86Q798.22 8.86 800.02 6.59L800.02 6.59Q800.61 5.83 800.61 4.69 800.61 3.54 799.89 2.73 799.17 1.93 798.09 1.49L798.09 1.49Q796.31 0.76 793.46 0.76L793.46 0.76Q789.06 0.76 787.47 1.9ZM852.29-29.49L852.29-29.49Q852.29-26.46 849.6-26.46L849.6-26.46 847.92-26.46Q847.14-26.46 846.71-27.04 846.28-27.61 846.22-28.63 846.16-29.64 845.6-30.48 845.04-31.32 844.16-31.84L844.16-31.84Q842.52-32.79 839.81-32.79 837.1-32.79 835.1-31.65 833.1-30.52 831.88-28.61L831.88-28.61Q829.53-25.05 829.53-19.09L829.53-19.09Q829.53-8.37 836.52-5.62L836.52-5.62Q838.67-4.79 840.72-4.79L840.72-4.79Q844.43-4.79 847.26-6.13L847.26-6.13 848.63-6.76Q849.29-7.06 849.8-7.06 850.31-7.06 850.63-6.81 850.95-6.57 851.42-5.65 851.9-4.74 851.9-4.06 851.9-3.39 851.43-2.75 850.97-2.1 850.29-1.61L850.29-1.61Q849.09-0.83 847.41-0.32L847.41-0.32Q844.33 0.61 840.22 0.61 836.1 0.61 832.87-0.88 829.63-2.37 827.43-5L827.43-5Q822.92-10.38 822.92-19.09L822.92-19.09Q822.92-27.69 827.48-32.81L827.48-32.81Q832.15-38.09 840.33-38.09L840.33-38.09Q844.82-38.09 848.28-36.08L848.28-36.08Q852.29-33.79 852.29-29.49ZM856.39-13.87L856.39-13.87Q856.39-17.04 857.45-19.69 858.51-22.34 860.37-24.22L860.37-24.22Q864.25-28.15 870.16-28.15L870.16-28.15Q876.77-28.15 880.41-24.22L880.41-24.22Q883.93-20.43 883.93-13.82L883.93-13.82Q883.93-7.42 879.95-3.37L879.95-3.37Q876.06 0.61 870.16 0.61L870.16 0.61Q863.93 0.61 860.15-3.47L860.15-3.47Q856.39-7.45 856.39-13.87ZM864.24-20.08Q863.32-18.73 862.91-17 862.49-15.28 862.49-13.51 862.49-11.74 862.97-10.12 863.44-8.5 864.4-7.23L864.4-7.23Q866.49-4.44 870.25-4.44L870.25-4.44Q874.09-4.44 876.06-7.18L876.06-7.18Q877.82-9.57 877.82-13.7L877.82-13.7Q877.82-19.87 873.77-22.22L873.77-22.22Q872.28-23.07 870.17-23.07 868.06-23.07 866.6-22.25 865.15-21.44 864.24-20.08ZM906.34-28.15L906.34-28.15Q912.49-28.15 914.12-22.66L914.12-22.66Q916.57-26.59 920.59-27.78L920.59-27.78Q921.96-28.17 924.04-28.17 926.11-28.17 928.05-27.15 929.99-26.12 930.93-24.48 931.87-22.83 932.13-20.85 932.39-18.87 932.39-16.6L932.39-16.6 932.39-1.61Q932.39-0.93 931.95-0.46 931.51 0 930.65 0L930.65 0 928.26 0Q927.33 0 926.89-0.46 926.45-0.93 926.45-1.61L926.45-1.61 926.45-16.82Q926.45-19.97 925.37-21.51 924.28-23.05 921.94-23.05L921.94-23.05Q919.28-23.05 917.27-20.7L917.27-20.7Q915.12-18.26 915.12-14.65L915.12-14.65 915.12-1.61Q915.12-0.93 914.69-0.46 914.25 0 913.39 0L913.39 0 911 0Q910.07 0 909.63-0.46 909.19-0.93 909.19-1.61L909.19-1.61 909.19-16.82Q909.19-19.97 908.11-21.51 907.02-23.05 904.68-23.05L904.68-23.05Q902.01-23.05 899.99-20.7L899.99-20.7Q897.86-18.26 897.86-14.65L897.86-14.65 897.86-1.61Q897.86-0.93 897.45-0.46 897.03 0 896.18 0L896.18 0 893.66 0Q892.81 0 892.37-0.46 891.93-0.93 891.93-1.61L891.93-1.61 891.93-16.6Q891.93-21.51 891.61-23.45 891.3-25.39 891.3-25.78L891.3-25.78Q891.3-27.54 892.98-27.54L892.98-27.54 894.32-27.54Q895.69-27.54 896.18-26.51L896.18-26.51Q896.77-25.27 897.3-22.66L897.3-22.66Q899.43-26.49 903.46-27.73L903.46-27.73Q904.82-28.15 906.34-28.15ZM947.28-4.22L947.28-4.22Q947.52-1.78 947.52 1.88L947.52 1.88 947.52 11.96Q947.52 13.77 946.08 13.77L946.08 13.77 943.05 13.77Q941.51 13.77 941.51 11.87L941.51 11.87 941.51-15.16Q941.51-22.02 940.78-25.17L940.78-25.17Q940.71-25.49 940.71-26.05 940.71-26.61 941.16-27.08 941.61-27.54 942.32-27.54L942.32-27.54 943.81-27.54Q945.15-27.54 945.71-26.37L945.71-26.37Q946.37-25 946.71-22.83L946.71-22.83Q948.42-25.81 951.38-27.17L951.38-27.17Q953.48-28.15 956.15-28.15 958.82-28.15 960.92-27.11 963.02-26.07 964.41-24.27L964.41-24.27Q967.17-20.68 967.17-14.65L967.17-14.65Q967.17-8.35 964.07-4L964.07-4Q960.8 0.61 955.5 0.61L955.5 0.61Q949.99 0.61 947.28-4.22ZM946.96-14.23L946.96-12.89Q946.96-9.38 949.3-6.84L949.3-6.84Q951.52-4.44 954.33-4.44L954.33-4.44Q957.87-4.44 959.58-7.89L959.58-7.89Q960.95-10.62 960.95-14.79L960.95-14.79Q960.95-18.16 959.34-20.51L959.34-20.51Q957.6-23.05 954.72-23.05L954.72-23.05Q951.47-23.05 949.18-20.36L949.18-20.36Q946.96-17.72 946.96-14.23L946.96-14.23ZM980.45-41.7L980.45-6.71Q980.45-4.98 981.67-4.98L981.67-4.98Q982.06-4.98 982.67-5.2L982.67-5.2Q983.8-5.62 984.04-5.62L984.04-5.62Q984.6-5.62 984.92-4.91L984.92-4.91 985.68-3.17Q985.82-2.81 985.82-2.49L985.82-2.49Q985.82-1.93 984.9-1.12L984.9-1.12Q983.04 0.42 980.04 0.42L980.04 0.42Q974.57 0.42 974.57-6.88L974.57-6.88 974.57-41.7Q974.57-42.36 974.96-42.82 975.35-43.29 975.89-43.29L975.89-43.29 979.16-43.29Q979.72-43.29 980.09-42.82 980.45-42.36 980.45-41.7L980.45-41.7ZM994.15-32.25L994.15-32.25Q992.49-32.25 991.31-33.4L991.31-33.4Q990.14-34.52 990.14-36.23L990.14-36.23Q990.14-37.89 991.31-39.06L991.31-39.06Q992.44-40.19 994.15-40.19L994.15-40.19Q996.76-40.19 997.81-37.79L997.81-37.79Q998.13-37.08 998.13-36.23L998.13-36.23Q998.13-34.52 996.95-33.4L996.95-33.4Q995.78-32.25 994.15-32.25ZM997-25.93L997-6.71Q997-4.98 998.15-4.98L998.15-4.98Q998.54-4.98 999.03-5.2L999.03-5.2Q999.98-5.62 1000.32-5.62L1000.32-5.62Q1000.84-5.62 1001.15-4.91L1001.15-4.91 1001.91-3.2Q1002.1-2.78 1002.1-2.42L1002.1-2.42Q1002.1-1.37 1000.3-0.46L1000.3-0.46Q998.59 0.42 996.92 0.42 995.24 0.42 994.24 0.05 993.24-0.32 992.53-1.17L992.53-1.17Q991.12-2.93 991.12-6.88L991.12-6.88 991.12-25.93Q991.12-26.61 991.51-27.08 991.9-27.54 992.44-27.54L992.44-27.54 995.71-27.54Q996.27-27.54 996.64-27.08 997-26.61 997-25.93L997-25.93ZM1029.98-1.29L1029.98-1.29Q1029.98 0 1028.71 0L1028.71 0 1026.35 0Q1025.39 0 1025.2-0.38 1025-0.76 1024.98-1.06 1024.95-1.37 1024.88-1.81L1024.88-1.81Q1024.73-3 1024.47-4.39L1024.47-4.39Q1022.56-0.9 1018.48 0.22L1018.48 0.22Q1017.04 0.61 1015.31 0.61 1013.58 0.61 1011.84 0.04 1010.11-0.54 1008.77-1.66L1008.77-1.66Q1005.74-4.2 1005.74-8.33L1005.74-8.33Q1005.74-12.84 1009.06-15.23L1009.06-15.23Q1011.79-17.16 1016.09-17.16 1020.39-17.16 1023.37-14.65L1023.37-14.65Q1023.44-15.48 1023.44-16.72 1023.44-17.97 1022.95-19.21 1022.46-20.46 1021.56-21.29L1021.56-21.29Q1019.7-22.92 1016.38-22.92L1016.38-22.92Q1013.41-22.92 1010.33-21.29L1010.33-21.29Q1009.74-20.97 1009.3-20.97L1009.3-20.97Q1008.65-20.97 1008.03-22.27L1008.03-22.27Q1007.38-23.58 1007.38-24.17L1007.38-24.17Q1007.38-25.24 1008.99-26.25L1008.99-26.25Q1012.06-28.15 1017.21-28.15L1017.21-28.15Q1021.9-28.15 1024.98-25.59L1024.98-25.59Q1028.62-22.51 1028.62-16.89L1028.62-16.89Q1028.62-14.4 1027.81-10.62L1027.81-10.62Q1029.89-4.71 1029.98-1.29ZM1013.63-11.66Q1012.62-10.91 1012.2-10.18 1011.77-9.45 1011.77-8.46 1011.77-7.47 1012.12-6.7 1012.48-5.93 1013.11-5.42L1013.11-5.42Q1014.46-4.37 1016.13-4.37 1017.8-4.37 1018.87-4.76 1019.95-5.15 1020.73-5.76L1020.73-5.76Q1022.41-7.08 1022.41-8.54L1022.41-8.54Q1022.27-10.38 1020.39-11.43L1020.39-11.43Q1018.7-12.4 1016.41-12.4L1016.41-12.4Q1014.63-12.4 1013.63-11.66ZM1037.01-25.78L1037.01-25.78Q1037.01-27.54 1038.7-27.54L1038.7-27.54 1040.04-27.54Q1041.41-27.54 1041.89-26.51L1041.89-26.51Q1042.58-25.05 1043.07-22.66L1043.07-22.66Q1045.26-26.66 1049.61-27.78L1049.61-27.78Q1050.98-28.15 1053.02-28.15 1055.05-28.15 1056.79-27.28 1058.52-26.42 1059.52-24.9L1059.52-24.9Q1061.38-22.14 1061.38-16.77L1061.38-16.77 1061.38-1.61Q1061.38-0.93 1060.94-0.46 1060.5 0 1059.64 0L1059.64 0 1057.25 0Q1056.32 0 1055.88-0.46 1055.44-0.93 1055.44-1.61L1055.44-1.61 1055.44-16.8Q1055.44-23.05 1050.85-23.05L1050.85-23.05Q1048.17-23.05 1045.95-20.8L1045.95-20.8Q1043.58-18.38 1043.58-15.19L1043.58-15.19 1043.58-1.61Q1043.58-0.93 1043.16-0.46 1042.75 0 1041.89 0L1041.89 0 1039.38 0Q1038.53 0 1038.09-0.46 1037.65-0.93 1037.65-1.61L1037.65-1.61 1037.65-16.6Q1037.65-21.51 1037.33-23.45 1037.01-25.39 1037.01-25.78ZM1089.23-16.67L1088.65-16.67Q1086.64-16.67 1086.64-18.65L1086.64-18.65Q1086.64-20.92 1085.25-22.12L1085.25-22.12Q1084.06-23.17 1082.04-23.17 1080.03-23.17 1078.71-22.34 1077.39-21.51 1076.56-20.21L1076.56-20.21Q1074.95-17.68 1074.95-14.11L1074.95-14.11Q1074.95-7.45 1079-5.37L1079-5.37Q1080.47-4.61 1082.25-4.61 1084.03-4.61 1085.18-5 1086.33-5.4 1087.23-5.86 1088.13-6.32 1088.8-6.71 1089.48-7.1 1089.91-7.1L1089.91-7.1Q1090.79-7.1 1091.31-6.3L1091.31-6.3 1091.84-5.4Q1092.21-4.76 1092.21-4.16 1092.21-3.56 1091.72-2.92 1091.23-2.27 1090.42-1.73 1089.6-1.2 1088.55-0.76 1087.5-0.32 1086.37 0L1086.37 0Q1081 1.44 1076.56-0.44L1076.56-0.44Q1071.58-2.54 1069.7-7.96L1069.7-7.96Q1068.77-10.64 1068.77-13.96 1068.77-17.29 1069.76-19.92 1070.75-22.56 1072.51-24.39L1072.51-24.39Q1076.15-28.15 1082-28.15L1082-28.15Q1087.18-28.15 1089.94-25.44L1089.94-25.44Q1092.26-23.12 1092.26-19.63L1092.26-19.63Q1092.26-16.67 1089.23-16.67L1089.23-16.67ZM1103.54-12.43L1103.54-12.43 1103.51-11.96Q1103.51-8.62 1105.63-6.59L1105.63-6.59Q1107.86-4.44 1111.67-4.44L1111.67-4.44Q1115.13-4.44 1118.11-6.52L1118.11-6.52Q1118.67-6.91 1119.11-6.91L1119.11-6.91Q1120.01-6.91 1120.48-6.01L1120.48-6.01 1121.14-4.64Q1121.36-4.15 1121.36-3.59 1121.36-3.03 1120.86-2.43 1120.36-1.83 1119.55-1.34 1118.75-0.85 1117.68-0.49 1116.62-0.12 1115.5 0.12L1115.5 0.12Q1113.25 0.61 1110.81 0.61 1108.37 0.61 1105.89-0.32 1103.41-1.25 1101.61-3.03L1101.61-3.03Q1097.72-6.81 1097.72-13.26L1097.72-13.26Q1097.72-24.56 1105.68-27.32L1105.68-27.32Q1108.17-28.17 1110.8-28.17 1113.42-28.17 1115.27-27.61 1117.11-27.05 1118.45-25.95L1118.45-25.95Q1121.28-23.63 1121.28-19.48L1121.28-19.48Q1121.28-15.41 1117.96-13.26L1117.96-13.26Q1115.06-11.38 1110.3-11.38L1110.3-11.38Q1107.37-11.38 1103.54-12.43ZM1115.55-19.56L1115.55-19.56Q1115.55-23.05 1110.86-23.05L1110.86-23.05Q1106.39-23.05 1104.61-19.78L1104.61-19.78Q1103.97-18.63 1103.78-16.94L1103.78-16.94Q1105.88-15.89 1109.13-15.89L1109.13-15.89Q1115.55-15.89 1115.55-19.56Z" opacity="1" transform="matrix(1,0,0,1,0,0)" fill="#61777f" class="slogan-text-1" data-fill-palette-color="secondary" id="text-1"></path></svg></g></svg></g></svg></g></svg></g><g transform="matrix(1,0,0,1,114.07591644432797,0)"><svg viewBox="0 0 167.36816711134404 124.01052355058069" height="124.01052355058069" width="167.36816711134404"><g><svg xmlns="http://www.w3.org/2000/svg" data-name="Layer 1" viewBox="12.930481781740943 18.564101283342794 70.00903643651812 57.35589871665721" x="8" y="0" height="124.01052355058069" width="151.36816711134404" class="icon-icon-0" data-fill-palette-color="accent" id="icon-0"><path d="M42 73.7C41.55 73.63 41.11 73.55 40.67 73.46A26.91 26.91 0 0 1 37.1 21.81 27.89 27.89 0 0 0 42.1 75.75C42.54 75.82 43 75.88 43.46 75.92 46.12 75.71 44.08 74.29 42 73.7" fill="#d2d6dc" data-fill-palette-color="accent"></path><path d="M35.75 67.68C35.57 68.21 34.49 69.68 33.75 69.58H33.7A9.7 9.7 0 0 0 34.4 67.3 4.7 4.7 0 0 0 34.47 65.85 2.63 2.63 0 0 0 33.91 64.51 8 8 0 0 1 34 65.88V67.25A11 11 0 0 1 33.78 68.62C33.71 68.93 33.64 69.24 33.55 69.55A0.4 0.4 0 0 1 33.43 69.48 3.23 3.23 0 0 1 32.62 65.14 11 11 0 0 0 33.13 63.29C33.31 62.78 34.01 63.56 34.2 63.74A6.7 6.7 0 0 1 35.1 64.82 3.38 3.38 0 0 1 35.75 67.68" fill="#d2d6dc" data-fill-palette-color="accent"></path><path d="M30.11 74.55C30.55 74.22 31.57 72.73 31.26 72.04A10 10 0 0 1 29.32 73.43 4.6 4.6 0 0 1 27.98 73.97 2.74 2.74 0 0 1 26.53 73.87 7 7 0 0 0 27.87 73.6 12 12 0 0 0 29.16 73.17 9.6 9.6 0 0 0 30.39 72.53C30.66 72.36 30.93 72.19 31.19 72.01A0.3 0.3 0 0 0 31.09 71.92 3.23 3.23 0 0 0 26.72 72.55 11.3 11.3 0 0 1 25.14 73.63C24.72 73.96 25.69 74.37 25.91 74.49A6 6 0 0 0 27.22 74.99 3.33 3.33 0 0 0 30.11 74.55" fill="#d2d6dc" data-fill-palette-color="accent"></path><path d="M23.73 70C24.24 69.8 25.64 68.66 25.53 67.91A9.8 9.8 0 0 1 23.29 68.7 4.4 4.4 0 0 1 21.85 68.85 2.8 2.8 0 0 1 20.48 68.35 9 9 0 0 0 21.85 68.46H23.21A11 11 0 0 0 24.58 68C24.89 67.92 25.19 67.83 25.49 67.72A0.4 0.4 0 0 0 25.42 67.61 3.24 3.24 0 0 0 21.05 67 12 12 0 0 1 19.23 67.59C18.73 67.79 19.54 68.46 19.73 68.59A6.2 6.2 0 0 0 20.84 69.44 3.39 3.39 0 0 0 23.73 70" fill="#d2d6dc" data-fill-palette-color="accent"></path><path d="M30.22 64.49C29.81 64.85 28.15 65.58 27.54 65.14A9.6 9.6 0 0 0 29.27 63.5 4.7 4.7 0 0 0 30 62.26 2.8 2.8 0 0 0 30.17 60.81 9 9 0 0 1 29.65 62.08 13 13 0 0 1 29 63.27 10 10 0 0 1 28.14 64.36C27.93 64.59 27.71 64.82 27.48 65.04A0.5 0.5 0 0 1 27.41 64.92 3.23 3.23 0 0 1 28.85 60.75 11 11 0 0 0 30.21 59.4C30.61 59.05 30.84 60.08 30.91 60.32A6.6 6.6 0 0 1 31.16 61.7 3.38 3.38 0 0 1 30.22 64.49" fill="#d2d6dc" data-fill-palette-color="accent"></path><path d="M19.82 64.47C20.31 64.38 21.74 63.58 21.77 62.9A9 9 0 0 1 19.64 63.25 4.2 4.2 0 0 1 18.33 63.15 2.5 2.5 0 0 1 17.19 62.48 8 8 0 0 0 18.39 62.81 12 12 0 0 0 19.62 62.98 9 9 0 0 0 20.88 62.98 8 8 0 0 0 21.74 62.88 0.4 0.4 0 0 0 21.74 62.77 2.94 2.94 0 0 0 17.93 61.51 10 10 0 0 1 16.2 61.75C15.73 61.85 16.35 62.58 16.48 62.75A6 6 0 0 0 17.34 63.69 3.07 3.07 0 0 0 19.82 64.47" fill="#d2d6dc" data-fill-palette-color="accent"></path><path d="M26.77 59.75C26.45 60.14 25.07 61.03 24.45 60.75A8.5 8.5 0 0 0 25.73 59 3.9 3.9 0 0 0 26.26 57.79 2.46 2.46 0 0 0 26.21 56.47 7.6 7.6 0 0 1 25.93 57.68C25.8 58.06 25.67 58.46 25.5 58.84A10 10 0 0 1 24.88 59.94C24.72 60.18 24.55 60.42 24.38 60.65A0.4 0.4 0 0 1 24.3 60.55 3 3 0 0 1 25 56.6 10 10 0 0 0 26 55.2C26.31 54.83 26.66 55.72 26.76 55.92A5.8 5.8 0 0 1 27.18 57.13 3.06 3.06 0 0 1 26.77 59.75" fill="#d2d6dc" data-fill-palette-color="accent"></path><path d="M16.73 57.81C17.2 57.87 18.73 57.58 18.91 56.98A8 8 0 0 1 16.91 56.67 3.9 3.9 0 0 1 15.78 56.2 2.24 2.24 0 0 1 14.97 55.28 7 7 0 0 0 15.97 55.91C16.31 56.08 16.65 56.27 16.97 56.42A8.5 8.5 0 0 0 18.09 56.76L18.88 56.92A0.5 0.5 0 0 0 18.88 56.8 2.74 2.74 0 0 0 15.88 54.59 9.5 9.5 0 0 1 14.29 54.31C13.84 54.31 14.17 55.08 14.24 55.31A5.3 5.3 0 0 0 14.73 56.39 2.84 2.84 0 0 0 16.73 57.81" fill="#d2d6dc" data-fill-palette-color="accent"></path><path d="M23.68 54.85C23.26 55.05 21.75 55.23 21.35 54.73A7.7 7.7 0 0 0 23.14 53.83 3.9 3.9 0 0 0 24 53 2.3 2.3 0 0 0 24.49 51.87 8 8 0 0 1 23.77 52.77C23.51 53.04 23.24 53.32 22.95 53.57A9 9 0 0 1 21.95 54.24C21.72 54.38 21.49 54.51 21.25 54.63A0.2 0.2 0 0 1 21.25 54.52 2.72 2.72 0 0 1 23.41 51.52 9 9 0 0 0 24.83 50.76C25.24 50.57 25.18 51.45 25.18 51.67A5 5 0 0 1 25.05 52.84 2.83 2.83 0 0 1 23.68 54.85" fill="#d2d6dc" data-fill-palette-color="accent"></path><path d="M22.53 49.27C22.1 49.47 20.6 49.65 20.2 49.15A8 8 0 0 0 21.99 48.25 3.9 3.9 0 0 0 22.91 47.46 2.4 2.4 0 0 0 23.4 46.33 8 8 0 0 1 22.68 47.23C22.41 47.5 22.15 47.78 21.85 48.03A8 8 0 0 1 20.85 48.7C20.63 48.84 20.39 48.97 20.16 49.09A0.2 0.2 0 0 1 20.16 48.98 2.71 2.71 0 0 1 22.32 45.98 10 10 0 0 0 23.74 45.22C24.15 45.03 24.09 45.91 24.09 46.13A5 5 0 0 1 23.96 47.3 2.83 2.83 0 0 1 22.53 49.27" fill="#d2d6dc" data-fill-palette-color="accent"></path><path d="M22.82 42.81C22.36 42.88 20.82 42.6 20.63 42A8.4 8.4 0 0 0 22.63 41.68 3.8 3.8 0 0 0 23.75 41.2 2.25 2.25 0 0 0 24.55 40.27 7 7 0 0 1 23.55 40.91 11 11 0 0 1 22.55 41.43 8.5 8.5 0 0 1 21.43 41.77C21.17 41.84 20.91 41.89 20.65 41.94A0.24 0.24 0 0 1 20.65 41.82 2.72 2.72 0 0 1 23.65 39.59 9.5 9.5 0 0 0 25.24 39.3C25.68 39.24 25.36 40.06 25.3 40.3A5.5 5.5 0 0 1 24.82 41.38 2.77 2.77 0 0 1 22.82 42.81" fill="#d2d6dc" data-fill-palette-color="accent"></path><path d="M23.6 38C23.18 37.82 22.04 36.82 22.15 36.19A8.4 8.4 0 0 0 24.01 36.92 3.8 3.8 0 0 0 25.22 37.08 2.3 2.3 0 0 0 26.38 36.7 7.5 7.5 0 0 1 25.23 36.76 11 11 0 0 1 24.09 36.68 9 9 0 0 1 22.95 36.41L22.18 36A0.4 0.4 0 0 1 22.25 35.9 2.7 2.7 0 0 1 25.93 35.51 9.5 9.5 0 0 0 27.45 36.06C27.86 36.24 27.16 36.78 27 36.93A5.4 5.4 0 0 1 26 37.61 2.79 2.79 0 0 1 23.6 38" fill="#d2d6dc" data-fill-palette-color="accent"></path><path d="M15.55 51.54C16.02 51.6 17.55 51.31 17.73 50.71A8.3 8.3 0 0 1 15.73 50.4 3.9 3.9 0 0 1 14.6 49.93 2.24 2.24 0 0 1 13.79 49.01 7.3 7.3 0 0 0 14.79 49.64C15.12 49.81 15.46 50 15.79 50.15A10 10 0 0 0 16.91 50.49C17.17 50.55 17.43 50.6 17.7 50.64A0.5 0.5 0 0 0 17.7 50.53 2.74 2.74 0 0 0 14.7 48.32 9.5 9.5 0 0 1 13.16 48C12.71 48 13.05 48.77 13.11 49A5.3 5.3 0 0 0 13.6 50 2.84 2.84 0 0 0 15.55 51.54" fill="#d2d6dc" data-fill-palette-color="accent"></path><path d="M15.6 45.63C16.06 45.74 17.6 45.63 17.87 45.06A8.3 8.3 0 0 1 15.93 44.53 4.3 4.3 0 0 1 14.86 43.93 2.34 2.34 0 0 1 14.16 42.93 7.6 7.6 0 0 0 15.05 43.67C15.37 43.88 15.68 44.11 16.05 44.29A7.4 7.4 0 0 0 17.13 44.76C17.38 44.85 17.64 44.94 17.9 45.01A0.5 0.5 0 0 0 17.9 44.89 2.72 2.72 0 0 0 15.17 42.36 10 10 0 0 1 13.62 41.89C13.18 41.79 13.42 42.64 13.46 42.89A5.5 5.5 0 0 0 13.82 44.02 2.82 2.82 0 0 0 15.6 45.63" fill="#d2d6dc" data-fill-palette-color="accent"></path><path d="M16.28 39.63C16.64 39.93 18.05 40.5 18.56 40.12A7.7 7.7 0 0 1 17.05 38.78 3.7 3.7 0 0 1 16.36 37.78 2.2 2.2 0 0 1 16.18 36.57 8 8 0 0 0 16.65 37.57 10 10 0 0 0 17.25 38.57 7 7 0 0 0 18.01 39.47C18.19 39.66 18.38 39.85 18.58 40.03A0.3 0.3 0 0 0 18.64 39.93 2.73 2.73 0 0 0 17.32 36.45 9.7 9.7 0 0 1 16.13 35.34C15.78 35.05 15.62 35.92 15.56 36.13A5.2 5.2 0 0 0 15.39 37.3 2.82 2.82 0 0 0 16.28 39.63" fill="#d2d6dc" data-fill-palette-color="accent"></path><path d="M18.71 33.6C19.02 33.95 20.33 34.74 20.89 34.44A8 8 0 0 1 19.61 32.89 4 4 0 0 1 19.08 31.78 2.33 2.33 0 0 1 19.08 30.55 6.6 6.6 0 0 0 19.38 31.67C19.51 32.02 19.64 32.39 19.81 32.74A10 10 0 0 0 20.42 33.74C20.58 33.96 20.74 34.18 20.91 34.38A0.4 0.4 0 0 0 20.98 34.29 2.74 2.74 0 0 0 20.21 30.64 10 10 0 0 1 19.21 29.37C18.91 29.03 18.61 29.87 18.52 30.06A5.5 5.5 0 0 0 18.17 31.19 2.87 2.87 0 0 0 18.71 33.6" fill="#d2d6dc" data-fill-palette-color="accent"></path><path d="M21.68 29.3C21.94 29.69 23.13 30.64 23.73 30.42A8.3 8.3 0 0 1 22.67 28.71 3.6 3.6 0 0 1 22.3 27.54 2.27 2.27 0 0 1 22.47 26.33 7 7 0 0 0 22.62 27.47 12 12 0 0 0 23 28.58 9 9 0 0 0 23.47 29.66C23.59 29.9 23.72 30.13 23.86 30.36A0.3 0.3 0 0 0 23.95 30.28 2.73 2.73 0 0 0 23.67 26.56 9.3 9.3 0 0 1 22.85 25.16C22.6 24.79 22.19 25.58 22.08 25.76A4.7 4.7 0 0 0 21.58 26.83 2.85 2.85 0 0 0 21.68 29.3" fill="#d2d6dc" data-fill-palette-color="accent"></path><path d="M26.47 33.49C26.01 33.41 24.65 32.72 24.6 32.09V32A8 8 0 0 0 26.6 32.26 4.2 4.2 0 0 0 27.82 32.12 2.4 2.4 0 0 0 28.82 31.46 7 7 0 0 1 27.71 31.8C27.34 31.87 26.96 31.96 26.58 32A9 9 0 0 1 25.4 32L24.6 31.93A0.5 0.5 0 0 1 24.6 31.82 2.73 2.73 0 0 1 28.1 30.53 9.7 9.7 0 0 0 29.71 30.7C30.16 30.77 29.61 31.47 29.49 31.65A5.5 5.5 0 0 1 28.72 32.55 2.87 2.87 0 0 1 26.47 33.49" fill="#d2d6dc" data-fill-palette-color="accent"></path><path d="M26.26 24.93C26.32 25.32 26.92 26.46 27.46 26.49A7.3 7.3 0 0 1 27.21 24.81 3.3 3.3 0 0 1 27.32 23.81 1.84 1.84 0 0 1 27.86 22.93 5.5 5.5 0 0 0 27.59 23.87 7 7 0 0 0 27.44 24.87 6.5 6.5 0 0 0 27.44 25.87C27.44 26.09 27.44 26.32 27.51 26.54H27.6A2.3 2.3 0 0 0 28.6 23.54 9 9 0 0 1 28.44 22.19C28.37 21.81 27.79 22.29 27.64 22.39A4.2 4.2 0 0 0 27 23 2.34 2.34 0 0 0 26.26 24.93" fill="#d2d6dc" data-fill-palette-color="accent"></path><path d="M30 28.88C29.67 28.66 28.88 27.64 29.07 27.14A7 7 0 0 0 30.5 28.05 3 3 0 0 0 31.5 28.37 1.9 1.9 0 0 0 32.5 28.24 6 6 0 0 1 31.5 28.11C31.19 28.03 30.87 27.96 30.57 27.85A7 7 0 0 1 29.66 27.44C29.47 27.34 29.27 27.23 29.08 27.11A0.2 0.2 0 0 1 29.15 27.04 2.29 2.29 0 0 1 32.27 27.31 9 9 0 0 0 33.44 28.01C33.75 28.23 33.09 28.56 32.93 28.66A4.3 4.3 0 0 1 32.03 29.07 2.41 2.41 0 0 1 30 28.88" fill="#d2d6dc" data-fill-palette-color="accent"></path><path d="M30.41 22.13C30.41 22.48 30.75 23.59 31.22 23.71A6 6 0 0 1 31.29 22.19 2.8 2.8 0 0 1 31.55 21.3 1.7 1.7 0 0 1 32.17 20.61 4.7 4.7 0 0 0 31.78 21.39 7 7 0 0 0 31.48 22.22 6 6 0 0 0 31.32 23.09 6 6 0 0 0 31.26 23.7H31.35A2.06 2.06 0 0 0 32.76 21.26 8.5 8.5 0 0 1 32.89 20C32.89 19.66 32.3 20 32.15 20A3.6 3.6 0 0 0 31.39 20.45 2.19 2.19 0 0 0 30.41 22.13" fill="#d2d6dc" data-fill-palette-color="accent"></path><path d="M35.19 25.28C34.87 25.11 34.08 24.28 34.19 23.81A6 6 0 0 0 35.56 24.49 3 3 0 0 0 36.46 24.69 1.8 1.8 0 0 0 37.37 24.48 6 6 0 0 1 36.49 24.48 9 9 0 0 1 35.63 24.34 6.5 6.5 0 0 1 34.78 24.06L34.23 23.81A0.2 0.2 0 0 1 34.23 23.74 2.07 2.07 0 0 1 37.05 23.74 8 8 0 0 0 38.16 24.27C38.47 24.43 37.9 24.79 37.77 24.89A3.8 3.8 0 0 1 36.99 25.34 2.14 2.14 0 0 1 35.19 25.28" fill="#d2d6dc" data-fill-palette-color="accent"></path><path d="M39.42 22.66C39.07 22.61 38.03 22.11 37.98 21.66A6.5 6.5 0 0 0 39.5 21.82 3 3 0 0 0 40.43 21.69 1.77 1.77 0 0 0 41.2 21.18 5.4 5.4 0 0 1 40.37 21.46 8 8 0 0 1 39.51 21.63 7 7 0 0 1 38.62 21.63 6 6 0 0 1 38.01 21.63 0.16 0.16 0 0 1 38.01 21.55 2.07 2.07 0 0 1 40.64 20.55 8.5 8.5 0 0 0 41.87 20.65C42.21 20.7 41.8 21.23 41.71 21.37A4.2 4.2 0 0 1 41.15 22.07 2.18 2.18 0 0 1 39.42 22.66" fill="#d2d6dc" data-fill-palette-color="accent"></path><path d="M34.83 20.34C34.83 20.64 34.99 21.63 35.38 21.77A5.3 5.3 0 0 1 35.57 20.46 2.5 2.5 0 0 1 35.88 19.71 1.5 1.5 0 0 1 36.48 19.17 5 5 0 0 0 36.07 19.81 7 7 0 0 0 35.74 20.5 6 6 0 0 0 35.52 21.24C35.52 21.41 35.45 21.58 35.42 21.76H35.5A1.78 1.78 0 0 0 36.93 19.76 7.4 7.4 0 0 1 37.11 18.71C37.11 18.42 36.61 18.64 36.47 18.71A4.5 4.5 0 0 0 35.77 19.04 1.83 1.83 0 0 0 34.83 20.34" fill="#d2d6dc" data-fill-palette-color="accent"></path><path d="M58.78 21.76A26.91 26.91 0 0 1 55.22 73.41C54.79 73.5 54.34 73.58 53.9 73.65 51.8 74.24 49.76 75.65 52.47 75.82 52.93 75.82 53.39 75.72 53.83 75.65A27.89 27.89 0 0 0 58.83 21.71Z" fill="#d2d6dc" data-fill-palette-color="accent"></path><path d="M60.12 67.68C60.3 68.21 61.38 69.68 62.12 69.58A9.7 9.7 0 0 1 61.42 67.3 4.4 4.4 0 0 1 61.35 65.85 2.63 2.63 0 0 1 62 64.5 8 8 0 0 0 61.82 65.86V67.23A11 11 0 0 0 62 68.62C62.07 68.93 62.14 69.24 62.23 69.55L62.35 69.48A3.23 3.23 0 0 0 63.16 65.14 11 11 0 0 1 62.65 63.29C62.47 62.78 61.77 63.56 61.58 63.74A6.7 6.7 0 0 0 60.68 64.82 3.35 3.35 0 0 0 60.12 67.68" fill="#d2d6dc" data-fill-palette-color="accent"></path><path d="M65.76 74.55C65.32 74.22 64.3 72.73 64.61 72.04A10 10 0 0 0 66.55 73.43 4.5 4.5 0 0 0 67.89 73.97 2.74 2.74 0 0 0 69.34 73.87 7 7 0 0 1 68 73.51 13 13 0 0 1 66.7 73.08 10 10 0 0 1 65.47 72.44L64.68 71.92A0.3 0.3 0 0 1 64.78 71.83 3.23 3.23 0 0 1 69.15 72.46 11 11 0 0 0 70.73 73.54C71.15 73.87 70.18 74.28 69.96 74.4A6.3 6.3 0 0 1 68.65 74.9 3.33 3.33 0 0 1 65.76 74.55" fill="#d2d6dc" data-fill-palette-color="accent"></path><path d="M72.14 70C71.62 69.8 70.23 68.66 70.34 67.91A9.6 9.6 0 0 0 72.58 68.7 4.4 4.4 0 0 0 74.02 68.85 2.8 2.8 0 0 0 75.39 68.35 9 9 0 0 1 74.02 68.46H72.66A11 11 0 0 1 71.29 68C70.98 67.92 70.68 67.83 70.38 67.72A0.4 0.4 0 0 1 70.45 67.61 3.23 3.23 0 0 1 74.82 67 12 12 0 0 0 76.64 67.59C77.14 67.79 76.32 68.46 76.14 68.59A6.2 6.2 0 0 1 75.02 69.44 3.36 3.36 0 0 1 72.14 70" fill="#d2d6dc" data-fill-palette-color="accent"></path><path d="M65.65 64.49C66.06 64.85 67.71 65.58 68.33 65.14A9.3 9.3 0 0 1 66.6 63.5 4.7 4.7 0 0 1 65.82 62.29 2.7 2.7 0 0 1 65.65 60.84 9 9 0 0 0 66.17 62.11 13 13 0 0 0 66.84 63.3 10 10 0 0 0 67.7 64.39C67.91 64.62 68.13 64.85 68.36 65.07A0.5 0.5 0 0 0 68.43 64.95 3.23 3.23 0 0 0 66.99 60.78 11 11 0 0 1 65.63 59.43C65.23 59.08 65 60.11 64.93 60.35A6.6 6.6 0 0 0 64.68 61.73 3.38 3.38 0 0 0 65.65 64.49" fill="#d2d6dc" data-fill-palette-color="accent"></path><path d="M76.05 64.47C75.56 64.38 74.13 63.58 74.05 62.9A9 9 0 0 0 76.19 63.25 4.2 4.2 0 0 0 77.5 63.15 2.5 2.5 0 0 0 78.64 62.48 8 8 0 0 1 77.43 62.81C77.03 62.87 76.62 62.96 76.21 62.98A9 9 0 0 1 74.94 62.98 8 8 0 0 1 74.09 62.88 0.4 0.4 0 0 1 74.09 62.77 2.94 2.94 0 0 1 78 61.39 10 10 0 0 0 79.72 61.63C80.2 61.73 79.58 62.46 79.45 62.63A6 6 0 0 1 78.59 63.57 3.07 3.07 0 0 1 76.05 64.47" fill="#d2d6dc" data-fill-palette-color="accent"></path><path d="M69.1 59.75C69.42 60.14 70.8 61.03 71.41 60.75A8.5 8.5 0 0 1 70.14 59 3.9 3.9 0 0 1 69.61 57.79 2.46 2.46 0 0 1 69.61 56.47 7.6 7.6 0 0 0 70 57.68 11 11 0 0 0 70.43 58.84 10 10 0 0 0 71.05 59.94C71.21 60.18 71.37 60.42 71.55 60.65L71.63 60.55A3 3 0 0 0 70.93 56.6 10 10 0 0 1 69.93 55.2C69.62 54.83 69.27 55.72 69.17 55.92A5.8 5.8 0 0 0 68.75 57.13 3.06 3.06 0 0 0 69.1 59.75" fill="#d2d6dc" data-fill-palette-color="accent"></path><path d="M79.13 57.81C78.67 57.87 77.18 57.58 76.96 56.98A8 8 0 0 0 78.96 56.67 3.9 3.9 0 0 0 80.09 56.2 2.24 2.24 0 0 0 80.9 55.28 6.4 6.4 0 0 1 79.9 55.91C79.57 56.08 79.23 56.27 78.9 56.42A8.5 8.5 0 0 1 77.78 56.76L76.99 56.92A0.5 0.5 0 0 1 76.99 56.8 2.74 2.74 0 0 1 79.99 54.59 9.5 9.5 0 0 0 81.58 54.31C82.03 54.31 81.69 55.08 81.58 55.31A5.3 5.3 0 0 1 81.09 56.39 2.83 2.83 0 0 1 79.13 57.81" fill="#d2d6dc" data-fill-palette-color="accent"></path><path d="M72.19 54.85C72.61 55.05 74.12 55.23 74.52 54.73A7.7 7.7 0 0 1 72.73 53.83 3.7 3.7 0 0 1 71.81 53.04 2.3 2.3 0 0 1 71.32 51.91 7 7 0 0 0 72.04 52.81 10 10 0 0 0 72.86 53.61 9 9 0 0 0 73.86 54.28C74.09 54.42 74.32 54.55 74.56 54.67A0.4 0.4 0 0 0 74.56 54.56 2.73 2.73 0 0 0 72.4 51.56 10 10 0 0 1 71 50.73C70.59 50.54 70.66 51.42 70.66 51.64A5 5 0 0 0 70.78 52.81 2.87 2.87 0 0 0 72.19 54.85" fill="#d2d6dc" data-fill-palette-color="accent"></path><path d="M73.34 49.27C73.76 49.47 75.27 49.65 75.67 49.15A7.7 7.7 0 0 1 73.88 48.25 3.9 3.9 0 0 1 72.96 47.46 2.3 2.3 0 0 1 72.47 46.33 8 8 0 0 0 73.19 47.23C73.45 47.5 73.72 47.78 74.01 48.03A9 9 0 0 0 75.01 48.7C75.24 48.84 75.48 48.97 75.71 49.09A0.2 0.2 0 0 0 75.71 48.98 2.71 2.71 0 0 0 73.55 45.98 10 10 0 0 1 72.13 45.22C71.72 45.03 71.78 45.91 71.78 46.13A5 5 0 0 0 72 47.23 2.83 2.83 0 0 0 73.34 49.27" fill="#d2d6dc" data-fill-palette-color="accent"></path><path d="M73.05 42.81C73.51 42.88 75.05 42.6 75.23 42A8.4 8.4 0 0 1 73.23 41.68 3.7 3.7 0 0 1 72.11 41.2 2.25 2.25 0 0 1 71.31 40.27 6 6 0 0 0 72.31 40.91 11 11 0 0 0 73.31 41.43 8.5 8.5 0 0 0 74.43 41.77C74.69 41.84 74.95 41.89 75.21 41.94A0.5 0.5 0 0 0 75.21 41.82 2.73 2.73 0 0 0 72.21 39.59 9.5 9.5 0 0 1 70.62 39.3C70.17 39.24 70.5 40.06 70.56 40.3A5.5 5.5 0 0 0 71.04 41.38 2.77 2.77 0 0 0 73.05 42.81" fill="#d2d6dc" data-fill-palette-color="accent"></path><path d="M72.26 38C72.69 37.82 73.83 36.82 73.72 36.19A8.4 8.4 0 0 1 71.86 36.92 3.8 3.8 0 0 1 70.65 37.08 2.25 2.25 0 0 1 69.49 36.7 7.5 7.5 0 0 0 70.64 36.76 11 11 0 0 0 71.78 36.68 9 9 0 0 0 72.92 36.41L73.67 36.15A0.2 0.2 0 0 0 73.61 36.05 2.71 2.71 0 0 0 69.92 35.66 9 9 0 0 1 68.41 36.21C68 36.39 68.7 36.93 68.86 37.08A5 5 0 0 0 69.86 37.76 2.77 2.77 0 0 0 72.26 38" fill="#d2d6dc" data-fill-palette-color="accent"></path><path d="M80.31 51.54C79.85 51.6 78.31 51.31 78.14 50.71A8.4 8.4 0 0 0 80.14 50.4 3.9 3.9 0 0 0 81.27 49.93 2.24 2.24 0 0 0 82.08 49.01 7.3 7.3 0 0 1 81.08 49.64C80.75 49.81 80.41 50 80.08 50.15A10 10 0 0 1 78.96 50.49C78.7 50.55 78.43 50.6 78.17 50.64A0.5 0.5 0 0 1 78.17 50.53 2.74 2.74 0 0 1 81.17 48.32 9.5 9.5 0 0 0 82.71 48C83.16 48 82.82 48.77 82.76 49A5.3 5.3 0 0 1 82.27 50 2.86 2.86 0 0 1 80.31 51.54" fill="#d2d6dc" data-fill-palette-color="accent"></path><path d="M80.27 45.63C79.81 45.74 78.27 45.63 78 45.06A8.3 8.3 0 0 0 79.94 44.53 4.3 4.3 0 0 0 81.01 43.93 2.34 2.34 0 0 0 81.71 42.93 7.6 7.6 0 0 1 80.82 43.67C80.5 43.88 80.19 44.11 79.82 44.29A7.4 7.4 0 0 1 78.74 44.76C78.49 44.85 78.23 44.94 77.97 45.01A0.24 0.24 0 0 1 77.97 44.89 2.72 2.72 0 0 1 80.7 42.36 10 10 0 0 0 82.25 41.89C82.69 41.79 82.45 42.64 82.41 42.89A5.5 5.5 0 0 1 82 43.91 2.82 2.82 0 0 1 80.27 45.63" fill="#d2d6dc" data-fill-palette-color="accent"></path><path d="M79.59 39.63C79.23 39.93 77.82 40.5 77.31 40.12A8 8 0 0 0 78.82 38.78 4 4 0 0 0 79.51 37.78 2.2 2.2 0 0 0 79.69 36.57 7 7 0 0 1 79.21 37.57 8 8 0 0 1 78.62 38.57 8 8 0 0 1 77.86 39.47C77.68 39.66 77.48 39.85 77.29 40.03A0.2 0.2 0 0 1 77.23 39.93 2.73 2.73 0 0 1 78.55 36.45 10.4 10.4 0 0 0 79.74 35.34C80.09 35.05 80.25 35.92 80.31 36.13A5.2 5.2 0 0 1 80.48 37.3 2.82 2.82 0 0 1 79.59 39.63" fill="#d2d6dc" data-fill-palette-color="accent"></path><path d="M77.15 33.6C76.85 33.95 75.54 34.74 74.98 34.44A8.7 8.7 0 0 0 76.26 32.89 3.8 3.8 0 0 0 76.78 31.78 2.24 2.24 0 0 0 76.78 30.55 6.6 6.6 0 0 1 76.48 31.67C76.35 32.02 76.22 32.39 76.05 32.74A10 10 0 0 1 75.44 33.74C75.28 33.96 75.12 34.18 74.95 34.38A0.2 0.2 0 0 1 74.88 34.29 2.74 2.74 0 0 1 75.65 30.64 10 10 0 0 0 76.65 29.37C76.95 29.03 77.25 29.87 77.34 30.06A6 6 0 0 1 77.69 31.19 2.84 2.84 0 0 1 77.15 33.6" fill="#d2d6dc" data-fill-palette-color="accent"></path><path d="M74.18 29.3C73.93 29.69 72.73 30.64 72.18 30.42A8.3 8.3 0 0 0 73.24 28.71 3.9 3.9 0 0 0 73.61 27.54 2.27 2.27 0 0 0 73.44 26.33 8 8 0 0 1 73.29 27.47 12 12 0 0 1 73 28.59 9 9 0 0 1 72.53 29.67C72.4 29.91 72.27 30.14 72.13 30.37A0.6 0.6 0 0 1 72.05 30.29 2.73 2.73 0 0 1 72.33 26.57 9.3 9.3 0 0 0 73.15 25.17C73.4 24.8 73.81 25.59 73.92 25.77A5.8 5.8 0 0 1 74.42 26.84 2.82 2.82 0 0 1 74.18 29.3" fill="#d2d6dc" data-fill-palette-color="accent"></path><path d="M69.4 33.49C69.86 33.41 71.22 32.72 71.27 32.09V32A8 8 0 0 1 69.27 32.26 4.2 4.2 0 0 1 68.05 32.12 2.5 2.5 0 0 1 67.05 31.46 6.7 6.7 0 0 0 68.16 31.8C68.53 31.87 68.9 31.96 69.29 32A9 9 0 0 0 70.47 32L71.27 31.93A0.5 0.5 0 0 0 71.27 31.82 2.73 2.73 0 0 0 67.77 30.53 9.7 9.7 0 0 1 66.16 30.7C65.71 30.77 66.26 31.47 66.38 31.65A5.5 5.5 0 0 0 67.15 32.55 2.87 2.87 0 0 0 69.4 33.49" fill="#d2d6dc" data-fill-palette-color="accent"></path><path d="M69.61 24.93C69.55 25.32 68.94 26.46 68.41 26.49A6.8 6.8 0 0 0 68.65 24.81 3.3 3.3 0 0 0 68.55 23.81 1.84 1.84 0 0 0 68 22.9 7 7 0 0 1 68.27 23.84 7 7 0 0 1 68.42 24.84 6.5 6.5 0 0 1 68.42 25.84C68.42 26.06 68.42 26.29 68.35 26.51H68.26A2.31 2.31 0 0 1 67.26 23.51 7.7 7.7 0 0 0 67.43 22.16C67.5 21.78 68.08 22.26 68.22 22.36A4 4 0 0 1 68.97 23.02 2.34 2.34 0 0 1 69.61 24.93" fill="#d2d6dc" data-fill-palette-color="accent"></path><path d="M65.88 28.88C66.2 28.66 66.99 27.64 66.8 27.14A7.4 7.4 0 0 1 65.37 28.05 3 3 0 0 1 64.37 28.37 1.9 1.9 0 0 1 63.37 28.24 6 6 0 0 0 64.37 28.11C64.67 28.03 64.99 27.96 65.3 27.85A6 6 0 0 0 66.2 27.44C66.4 27.34 66.6 27.23 66.79 27.11A0.2 0.2 0 0 0 66.72 27.04 2.29 2.29 0 0 0 63.6 27.31 9 9 0 0 1 62.43 28.01C62.11 28.23 62.78 28.56 62.94 28.66A4.3 4.3 0 0 0 63.84 29.07 2.41 2.41 0 0 0 65.88 28.88" fill="#d2d6dc" data-fill-palette-color="accent"></path><path d="M65.45 22.13C65.45 22.48 65.12 23.59 64.65 23.71A6 6 0 0 0 64.58 22.19 3 3 0 0 0 64.32 21.3 1.7 1.7 0 0 0 63.7 20.61 6 6 0 0 1 64.09 21.39 7 7 0 0 1 64.39 22.22 8 8 0 0 1 64.55 23.09V23.7H64.47A2.05 2.05 0 0 1 63.06 21.26 8.5 8.5 0 0 0 63 20C63 19.66 63.58 20 63.73 20A4 4 0 0 1 64.5 20.45 2.14 2.14 0 0 1 65.45 22.13" fill="#d2d6dc" data-fill-palette-color="accent"></path><path d="M60.68 25.28C60.99 25.11 61.79 24.28 61.68 23.81A6.3 6.3 0 0 1 60.31 24.49 3.1 3.1 0 0 1 59.41 24.69 1.8 1.8 0 0 1 58.5 24.48 6 6 0 0 0 59.38 24.48C59.66 24.48 59.95 24.41 60.24 24.34A6 6 0 0 0 61.08 24.06L61.64 23.81A0.13 0.13 0 0 0 61.58 23.74 2.07 2.07 0 0 0 58.76 23.74 7 7 0 0 1 57.65 24.27C57.35 24.43 57.92 24.79 58.05 24.89A4 4 0 0 0 58.82 25.34 2.16 2.16 0 0 0 60.68 25.28" fill="#d2d6dc" data-fill-palette-color="accent"></path><path d="M56.44 22.66C56.8 22.61 57.84 22.11 57.88 21.66A6.5 6.5 0 0 1 56.35 21.82 2.9 2.9 0 0 1 55.43 21.69 1.77 1.77 0 0 1 54.66 21.18 6 6 0 0 0 55.5 21.46 8 8 0 0 0 56.36 21.63 7 7 0 0 0 57.25 21.63H57.86A0.16 0.16 0 0 0 57.86 21.55 2.07 2.07 0 0 0 55.23 20.55 8.5 8.5 0 0 1 54 20.65C53.66 20.7 54.07 21.23 54.15 21.37A5 5 0 0 0 54.72 22.07 2.17 2.17 0 0 0 56.44 22.66" fill="#d2d6dc" data-fill-palette-color="accent"></path><path d="M61 20.34C61 20.64 60.84 21.63 60.45 21.77A5.3 5.3 0 0 0 60.26 20.46 2.5 2.5 0 0 0 59.95 19.71 1.5 1.5 0 0 0 59.35 19.17 5 5 0 0 1 59.76 19.81 7 7 0 0 1 60.09 20.5 4.5 4.5 0 0 1 60.3 21.24C60.3 21.41 60.38 21.58 60.41 21.76H60.33A1.8 1.8 0 0 1 58.89 19.76 6 6 0 0 0 58.72 18.71C58.72 18.42 59.22 18.64 59.36 18.71A4.5 4.5 0 0 1 60.06 19.04 1.85 1.85 0 0 1 61 20.34" fill="#d2d6dc" data-fill-palette-color="accent"></path><path d="M44.9 50.75A1.09 1.09 0 0 1 43.9 49.97L42.9 46.6C42.7 45.89 42.48 45.2 42.27 44.5L41.88 43.25C41.48 41.92 41.5 40 43.88 38.4 46.69 36.49 57.88 28.98 57.97 28.91A1.07 1.07 0 0 1 59.41 29.13 4.86 4.86 0 0 1 60.41 32.68 3.32 3.32 0 0 1 58.65 35C56.14 36.44 47.4 42.78 47.31 42.84A1.07 1.07 0 0 1 46.05 41.1C46.42 40.84 54.97 34.64 57.58 33.1 58.2 32.74 58.27 32.38 58.3 32.26A1.9 1.9 0 0 0 58.17 31.33C55.38 33.2 47.37 38.59 45.06 40.17 43.71 41.09 43.74 41.92 43.95 42.62 44.07 43.03 44.2 43.45 44.33 43.86 44.55 44.57 44.77 45.28 44.97 46L45.97 49.37A1.08 1.08 0 0 1 45.23 50.7 1 1 0 0 1 44.9 50.75" fill="#d2d6dc" data-fill-palette-color="accent"></path><path d="M47.68 46.12A1.07 1.07 0 0 1 47.08 44.12L57.33 37.17 57.42 37.12C57.65 36.98 58.42 36.37 57.69 34.81A1.07 1.07 0 1 1 59.69 33.91C60.95 36.67 59.52 38.41 58.55 38.98L48.28 45.94A1.1 1.1 0 0 1 47.68 46.12" fill="#d2d6dc" data-fill-palette-color="accent"></path><path d="M49.39 49.34A1.07 1.07 0 0 1 48.8 47.34L57.4 41.6H57.48C57.7 41.47 58.19 41 57.66 39.84A1.07 1.07 0 1 1 59.66 38.94C60.79 41.39 59.49 42.94 58.6 43.46L50 49.16A1 1 0 0 1 49.39 49.34" fill="#d2d6dc" data-fill-palette-color="accent"></path><path d="M41.71 68.41A3.1 3.1 0 0 1 40.61 68.22 2.85 2.85 0 0 1 38.85 66.41 1.1 1.1 0 0 1 38.95 65.58L41.44 61.29 43.75 49.58A1.06 1.06 0 0 1 44.51 48.75L51.35 46.81A1.07 1.07 0 0 1 52.52 47.23L55.46 51.4A0.9 0.9 0 0 1 55.6 51.67C56.33 53.82 54.6 55.83 53.47 56.67A10.6 10.6 0 0 0 50.06 61.4 10.63 10.63 0 0 1 46 66.7 7.9 7.9 0 0 1 41.71 68.41M41.13 66.1A1 1 0 0 0 41.36 66.21C41.68 66.31 42.64 66.4 44.74 64.94A8.58 8.58 0 0 0 48.09 60.57 12.6 12.6 0 0 1 52.09 55.01C52.54 54.67 53.73 53.51 53.52 52.52L51.12 49.11 45.65 50.67 43.51 61.88A1.3 1.3 0 0 1 43.39 62.21ZM42.46 61.67" fill="#d2d6dc" data-fill-palette-color="accent"></path><path d="M53.06 56.71A1 1 0 0 1 52.56 56.58 39.2 39.2 0 0 0 44.06 53.2 1.07 1.07 0 1 1 44.6 51.12 41.2 41.2 0 0 1 53.6 54.69 1.07 1.07 0 0 1 53.09 56.69Z" fill="#d2d6dc" data-fill-palette-color="accent"></path><path d="M47.12 65.38A1.14 1.14 0 0 1 46.61 65.25 32 32 0 0 0 41.84 63.25 1.07 1.07 0 0 1 42 61.13 1.06 1.06 0 0 1 42.53 61.13 34 34 0 0 1 47.64 63.32 1.07 1.07 0 0 1 47.14 65.32Z" fill="#d2d6dc" data-fill-palette-color="accent"></path></svg></g></svg></g><g><rect width="114.07591644432797" height="5.633043578678663" y="117.37747997190203" x="281.444083555672" fill="#d2d6dc" data-fill-palette-color="accent"></rect><rect width="114.07591644432797" height="5.633043578678663" y="117.37747997190203" x="0" fill="#d2d6dc" data-fill-palette-color="accent"></rect><rect width="114.07591644432797" height="5.633043578678663" y="106.1113928145447" x="281.444083555672" fill="#d2d6dc" data-fill-palette-color="accent"></rect><rect width="114.07591644432797" height="5.633043578678663" y="106.1113928145447" x="0" fill="#d2d6dc" data-fill-palette-color="accent"></rect></g></svg></g><defs></defs></svg><rect width="395.52" height="228.48936183422705" fill="none" stroke="none" visibility="hidden"></rect></g></svg></g></svg>